<svg width="12" height="12" viewBox="0 0 12 12" fill="none" xmlns="http://www.w3.org/2000/svg">
<path d="M6 1C3.3202 1 1.13239 3.10474 1.00204 5.75004C0.995248 5.88794 0.883877 6 0.745692 6H0.245282C0.107098 6 -0.00545894 5.88774 0.000204796 5.74978C0.131489 2.55211 2.76746 0 6 0C7.64847 0 9.1418 0.663707 10.2269 1.73827L11.2678 0.698251C11.4244 0.541778 11.6922 0.652598 11.6922 0.873885V3.75162C11.6922 3.88879 11.5809 4 11.4436 4L8.56348 4C8.34202 4 8.2311 3.73246 8.3877 3.57598L9.51923 2.44538C8.61523 1.55178 7.3721 1 6 1Z" fill="#242528"/>
<path d="M11.2543 6C11.1161 6 11.0048 6.11207 10.998 6.24997C10.8676 8.89526 8.6798 11 6 11C4.6279 11 3.38477 10.4482 2.48077 9.55462L3.61229 8.42402C3.7689 8.26755 3.65798 8 3.43651 8H0.556422C0.419131 8 0.307834 8.11121 0.307834 8.24839L0.307834 11.1261C0.307834 11.3474 0.575598 11.4582 0.732202 11.3018L1.77307 10.2617C2.8582 11.3363 4.35153 12 6 12C9.23254 12 11.8685 9.44789 11.9998 6.25022C12.0055 6.11227 11.8929 6 11.7547 6H11.2543Z" fill="#242528"/>
<path d="M8.11003 4.76149C8.20776 4.85914 8.20776 5.01754 8.11003 5.11519L5.63298 7.59021C5.53537 7.68774 5.37719 7.68774 5.27957 7.59021L3.86405 6.17585C3.76632 6.0782 3.76632 5.9198 3.86405 5.82215L4.21804 5.46845C4.31565 5.37092 4.47383 5.37092 4.57145 5.46845L5.45628 6.35255L7.40263 4.40779C7.50025 4.31026 7.65843 4.31026 7.75604 4.40779L8.11003 4.76149Z" fill="#242528"/>
</svg>
