<svg width="16" height="16" viewBox="0 0 16 16" fill="none" xmlns="http://www.w3.org/2000/svg">
<path d="M5 2.75C5 2.88807 5.11193 3 5.25 3H10.75C10.8881 3 11 2.88807 11 2.75V2.25C11 2.11193 10.8881 2 10.75 2H5.25C5.11193 2 5 2.11193 5 2.25V2.75Z" fill="white"/>
<path fill-rule="evenodd" clip-rule="evenodd" d="M11 9C11 10.6569 9.65686 12 8 12C6.34315 12 5 10.6569 5 9C5 7.34315 6.34315 6 8 6C9.65686 6 11 7.34315 11 9ZM10 9C10 10.1046 9.10457 11 8 11C6.89543 11 6 10.1046 6 9C6 7.89543 6.89543 7 8 7C9.10457 7 10 7.89543 10 9Z" fill="white"/>
<path fill-rule="evenodd" clip-rule="evenodd" d="M1 5C1 4.5 1.5 4 2 4H14C14.5 4 15 4.5 15 5V13C15 13.5 14.5 14 14 14H2C1.5 14 1 13.5 1 13V5ZM2 5H14V13H2V5Z" fill="white"/>
</svg>
