<svg width="64" height="64" viewBox="0 0 64 64" fill="none" xmlns="http://www.w3.org/2000/svg">
<path d="M43 8H21C20.4477 8 20 8.44772 20 9V11C20 11.5523 20.4477 12 21 12H43C43.5523 12 44 11.5523 44 11V9C44 8.44772 43.5523 8 43 8Z" fill="white"/>
<path d="M58.4938 16.8738L55.3675 20H56V52H23.3675L19.3675 56H56C58.2088 56 60 54.2088 60 52V20C60 18.7338 59.4113 17.6063 58.4938 16.8738Z" fill="white"/>
<path d="M32 44C31.795 44 31.5938 43.99 31.3925 43.975L28.0375 47.33C29.2775 47.7638 30.6112 48 32 48C38.6275 48 44 42.6275 44 36C44 34.6112 43.7638 33.2787 43.33 32.0375L39.975 35.3925C39.99 35.5925 40 35.795 40 36C40 40.4113 36.4113 44 32 44Z" fill="white"/>
<path d="M22.95 43.8787C22.9588 43.8887 22.9662 43.8988 22.975 43.9075L25.815 41.0675C25.8075 41.0575 25.7987 41.0475 25.7913 41.0375L37.0375 29.7913C37.0475 29.7988 37.0575 29.8063 37.0675 29.815L39.9075 26.975C39.8975 26.9663 39.8875 26.9588 39.8787 26.95L46.8288 20H46.8825L50.8825 16H50.8288L55.7075 11.1213C56.0975 10.7313 56.0975 10.0975 55.7075 9.7075L54.2938 8.29375C53.9038 7.90375 53.27 7.90375 52.88 8.29375L45.1725 16.0012H8C5.79125 16.0012 4 17.7925 4 20.0012V52.0013C4 53.405 4.72375 54.64 5.81875 55.3537L4.355 56.8175C3.965 57.2075 3.965 57.8413 4.355 58.2313L5.76875 59.645C6.15875 60.035 6.7925 60.035 7.1825 59.645L10.8275 56H10.8813L14.8813 52H14.8275L22.9487 43.8787H22.95ZM24.075 37.0962C24.0263 36.7375 24 36.3725 24 36C24 31.5887 27.5887 28 32 28C32.3713 28 32.7375 28.0263 33.0962 28.075L24.075 37.0962ZM8 52V20H41.1712L36.355 24.8162C35.005 24.29 33.5362 24 32 24C25.3725 24 20 29.3725 20 36C20 37.5362 20.29 39.005 20.8162 40.355L9.17125 52H8Z" fill="white"/>
</svg>
