<svg width="20" height="20" viewBox="0 0 20 20" fill="none" xmlns="http://www.w3.org/2000/svg">
<rect x="5" y="5" width="10" height="10" fill="#2B2C30"/>
<rect width="20" height="20" fill="white" style="mix-blend-mode:multiply"/>
<path fill-rule="evenodd" clip-rule="evenodd" d="M15.973 17.2263C18.051 15.5067 19.375 12.908 19.375 10C19.375 7.09203 18.051 4.4933 15.973 2.77372C14.351 1.43157 12.2697 0.625 10 0.625C7.7303 0.625 5.64898 1.43157 4.02704 2.77372C1.94899 4.4933 0.625 7.09203 0.625 10C0.625 12.908 1.94899 15.5067 4.02704 17.2263C5.64898 18.5684 7.7303 19.375 10 19.375C12.2697 19.375 14.351 18.5684 15.973 17.2263ZM5.09397 6.41978C4.97193 6.29774 4.97193 6.09988 5.09397 5.97784L5.97785 5.09395C6.09989 4.97192 6.29775 4.97191 6.41979 5.09395L10 8.67418L13.5802 5.09396C13.7023 4.97192 13.9002 4.97192 14.0222 5.09396L14.9061 5.97784C15.0281 6.09988 15.0281 6.29774 14.9061 6.41978L11.3258 10L14.8971 13.5713C15.0192 13.6933 15.0192 13.8912 14.8971 14.0132L14.0133 14.8971C13.8912 15.0192 13.6934 15.0192 13.5713 14.8971L10 11.3258L6.42153 14.9043C6.29949 15.0264 6.10162 15.0264 5.97959 14.9043L5.0957 14.0204C4.97366 13.8984 4.97366 13.7005 5.0957 13.5785L8.67419 10L5.09397 6.41978Z" fill="currentColor"/>
</svg>
