<svg width="528" height="270" viewBox="0 0 528 270" fill="none" xmlns="http://www.w3.org/2000/svg">
<path d="M82.806 96.6695C83.6179 94.3897 85.8821 93.0441 88.1873 93.3026C89.148 93.4103 90.1079 93.4958 91.073 93.4391C115.143 92.0235 144.955 105.805 176.692 124.679C147.639 101.17 121.049 80.3746 89.7747 101.746C87.5409 103.272 84.3759 102.733 83.0765 100.36C82.5545 99.4063 82.3659 98.2638 82.6772 97.0853C82.714 96.9462 82.7568 96.8075 82.806 96.6695Z" fill="#EEC3F7"/>
<path d="M243.339 40.2823C245.323 41.5472 246.139 43.9528 245.478 46.0973L245.403 46.3392C244.741 48.492 243.297 50.3006 241.385 51.4911C214.016 68.5295 245.704 90.3346 195.051 125.531C219.579 99.2841 239.754 38.5019 242.819 39.9915C242.996 40.0773 243.169 40.1742 243.339 40.2823Z" fill="#EEC3F7"/>
<path d="M285.29 173.519C284.269 175.639 281.978 176.735 279.77 176.333L279.521 176.288C277.305 175.885 275.337 174.667 273.928 172.909C253.762 147.756 235.872 181.808 194.912 135.691C223.885 156.931 286.632 169.748 285.517 172.968C285.453 173.154 285.377 173.338 285.29 173.519Z" fill="#EEC3F7"/>
<path d="M248.429 171.947C247.379 172.53 245.685 172.448 244.318 171.816L244.163 171.745C242.79 171.111 241.728 170.221 241.127 169.248C232.532 155.321 214.684 164.359 196.324 137.959C211.375 152.313 249.989 170.808 248.677 171.788C248.602 171.844 248.519 171.897 248.429 171.947Z" fill="#EEC3F7"/>
<path d="M256.712 116.398C256.453 117.571 255.269 118.785 253.889 119.39L253.733 119.459C252.348 120.066 250.978 120.272 249.851 120.077C233.726 117.281 228.662 136.635 196.726 132.882C217.45 131.128 256.893 114.475 256.757 116.107C256.75 116.201 256.735 116.298 256.712 116.398Z" fill="#EEC3F7"/>
<path d="M95.3324 189.144C94.1748 187.096 94.5836 184.588 96.1745 183.006L96.354 182.827C97.9501 181.238 100.074 180.319 102.321 180.165C134.486 177.975 116.749 143.843 177.997 136.555C144.016 148.209 97.6611 192.399 95.6547 189.645C95.5391 189.486 95.4314 189.319 95.3324 189.144Z" fill="#EEC3F7"/>
<path d="M224.685 188.776C223.496 189.57 221.969 189.412 220.953 188.487L220.838 188.383C219.818 187.455 219.182 186.176 219.003 184.791C216.434 164.97 196.549 177.235 189.78 139.61C198.123 160.197 226.557 187.212 224.975 188.558C224.884 188.635 224.787 188.708 224.685 188.776Z" fill="#EEC3F7"/>
<path d="M188.661 221.377C186.839 221.392 185.305 220.167 184.845 218.486L184.793 218.296C184.33 216.609 184.521 214.815 185.276 213.227C196.072 190.49 166.297 189.684 184.755 145.212C179.645 172.759 191.744 221.02 189.122 221.347C188.971 221.366 188.817 221.376 188.661 221.377Z" fill="#00C7FD"/>
<path d="M122.696 190.306C121.522 188.912 121.486 186.949 122.488 185.522L122.601 185.361C123.605 183.929 125.108 182.932 126.813 182.499C151.209 176.309 132.836 152.865 178.858 138.71C154.384 152.348 124.937 192.452 123.013 190.641C122.902 190.537 122.796 190.425 122.696 190.306Z" fill="#00C7FD"/>
<path d="M137.498 169.952C136.755 169.258 136.735 168.214 137.371 167.413L137.443 167.323C138.082 166.518 139.035 165.925 140.116 165.625C155.586 161.321 143.968 149.596 173.153 140.157C157.626 148.43 138.916 171.002 137.698 170.117C137.628 170.066 137.561 170.011 137.498 169.952Z" fill="#00C7FD"/>
<path d="M159.133 184.785C158.194 184.396 157.808 183.426 158.122 182.453L158.158 182.343C158.473 181.365 159.157 180.475 160.063 179.814C173.034 170.348 158.036 163.453 182.043 144.361C170.413 157.563 160.829 185.27 159.379 184.869C159.295 184.846 159.213 184.818 159.133 184.785Z" fill="#EEC3F7"/>
<path d="M95.8404 119.024L98.1996 126.285H105.834L99.6577 130.772L102.017 138.033L95.8404 133.546L89.6639 138.033L92.0231 130.772L85.8467 126.285H93.4812L95.8404 119.024Z" fill="#00C7FD"/>
<path d="M201.048 32L203.408 39.2609H211.042L204.866 43.7483L207.225 51.0092L201.048 46.5217L194.872 51.0092L197.231 43.7483L191.055 39.2609H198.689L201.048 32Z" fill="#EEC3F7"/>
<path d="M256.9 109.932L259.259 117.193H266.894L260.717 121.68L263.076 128.941L256.9 124.454L250.724 128.941L253.083 121.68L246.906 117.193H254.541L256.9 109.932Z" fill="#00C7FD"/>
<path d="M143.899 189.163L146.258 196.423H153.893L147.716 200.911L150.075 208.172L143.899 203.684L137.723 208.172L140.082 200.911L133.905 196.423H141.54L143.899 189.163Z" fill="#00C7FD"/>
<path d="M186.761 109.932L189.121 117.193H196.755L190.579 121.68L192.938 128.941L186.761 124.454L180.585 128.941L182.944 121.68L176.768 117.193H184.402L186.761 109.932Z" fill="#00C7FD"/>
<path d="M245.704 32L248.063 39.2609H255.697L249.521 43.7483L251.88 51.0092L245.704 46.5217L239.527 51.0092L241.886 43.7483L235.71 39.2609H243.344L245.704 32Z" fill="#EEC3F7"/>
<path d="M91.8391 175.502L94.8309 182.526L102.436 181.851L96.68 186.867L99.6718 193.891L93.1228 189.967L87.3672 194.983L89.0753 187.542L82.5264 183.618L90.131 182.943L91.8391 175.502Z" fill="#EEC3F7"/>
<path d="M157.15 41.3539C158.527 40.6759 160.075 41.1333 160.951 42.3617L161.05 42.5003C161.93 43.7327 162.348 45.292 162.275 46.8867C161.225 69.7113 184.053 59.5085 184.016 103.181C179.245 78.438 154.924 42.7761 156.81 41.5473C156.919 41.4765 157.032 41.4119 157.15 41.3539Z" fill="#00C7FD"/>
<path d="M137.241 75.1853C137.852 74.4232 138.853 74.3181 139.671 74.8561L139.764 74.9167C140.585 75.4563 141.227 76.3127 141.598 77.3138C146.907 91.6429 157.295 79.6475 168.578 106.572C159.45 92.5158 136.339 76.6182 137.097 75.3894C137.141 75.3187 137.189 75.2505 137.241 75.1853Z" fill="#EEC3F7"/>
<path d="M119.669 116.835C119.752 115.862 120.526 115.218 121.505 115.21L121.616 115.21C122.599 115.201 123.609 115.556 124.474 116.182C136.853 125.141 138.818 109.395 163.166 125.501C147.764 118.892 119.716 118.528 119.663 117.085C119.659 117.002 119.661 116.919 119.669 116.835Z" fill="#EEC3F7"/>
<path d="M315.378 156.763C315.906 155.28 317.38 154.404 318.88 154.572C319.505 154.643 320.129 154.698 320.757 154.661C336.418 153.74 355.815 162.707 376.464 174.987C357.561 159.692 340.26 146.161 319.912 160.066C318.459 161.059 316.4 160.708 315.554 159.164C315.215 158.544 315.092 157.8 315.294 157.034C315.318 156.943 315.346 156.853 315.378 156.763Z" fill="#EEC3F7"/>
<path d="M419.827 120.076C421.118 120.899 421.649 122.464 421.219 123.859L421.17 124.016C420.739 125.417 419.8 126.594 418.556 127.368C400.749 138.454 421.366 152.642 388.409 175.542C404.368 158.464 417.495 118.917 419.489 119.886C419.604 119.942 419.717 120.005 419.827 120.076Z" fill="#EEC3F7"/>
<path d="M447.123 206.764C446.459 208.144 444.968 208.857 443.531 208.595L443.369 208.566C441.927 208.304 440.647 207.511 439.73 206.368C426.609 190.002 414.97 212.158 388.319 182.152C407.17 195.972 447.996 204.311 447.27 206.406C447.229 206.527 447.179 206.646 447.123 206.764Z" fill="#EEC3F7"/>
<path d="M423.14 205.742C422.457 206.121 421.354 206.068 420.465 205.657L420.364 205.61C419.471 205.198 418.78 204.619 418.389 203.986C412.796 194.924 401.184 200.804 389.238 183.628C399.031 192.967 424.155 205 423.301 205.638C423.252 205.675 423.198 205.709 423.14 205.742Z" fill="#EEC3F7"/>
<path d="M428.529 169.6C428.36 170.363 427.589 171.153 426.692 171.546L426.59 171.591C425.689 171.986 424.798 172.12 424.065 171.993C413.573 170.174 410.278 182.766 389.499 180.325C402.983 179.183 428.646 168.348 428.558 169.41C428.553 169.471 428.543 169.534 428.529 169.6Z" fill="#EEC3F7"/>
<path d="M323.529 216.931C322.775 215.598 323.041 213.967 324.077 212.937L324.193 212.821C325.232 211.787 326.614 211.189 328.076 211.089C349.003 209.663 337.463 187.456 377.313 182.714C355.204 190.297 325.044 219.049 323.738 217.257C323.663 217.153 323.593 217.045 323.529 216.931Z" fill="#EEC3F7"/>
<path d="M407.69 216.691C406.916 217.208 405.922 217.105 405.262 216.503L405.187 216.435C404.523 215.832 404.109 214.999 403.993 214.098C402.322 201.202 389.384 209.182 384.979 184.702C390.408 198.097 408.908 215.674 407.878 216.549C407.819 216.6 407.756 216.647 407.69 216.691Z" fill="#EEC3F7"/>
<path d="M384.252 237.903C383.066 237.913 382.068 237.116 381.769 236.022L381.735 235.898C381.434 234.8 381.558 233.633 382.049 232.6C389.074 217.807 369.701 217.282 381.71 188.347C378.386 206.27 386.258 237.671 384.552 237.883C384.453 237.895 384.353 237.902 384.252 237.903Z" fill="#00C7FD"/>
<path d="M341.333 217.687C340.569 216.78 340.546 215.502 341.197 214.574L341.271 214.469C341.924 213.537 342.902 212.889 344.011 212.607C359.885 208.58 347.93 193.326 377.874 184.116C361.95 192.99 342.791 219.083 341.539 217.905C341.467 217.837 341.398 217.764 341.333 217.687Z" fill="#00C7FD"/>
<path d="M350.963 204.443C350.48 203.992 350.467 203.313 350.881 202.792L350.928 202.733C351.343 202.21 351.964 201.824 352.667 201.628C362.732 198.828 355.173 191.199 374.162 185.058C364.059 190.441 351.886 205.127 351.094 204.551C351.048 204.518 351.005 204.482 350.963 204.443Z" fill="#00C7FD"/>
<path d="M365.039 214.094C364.428 213.842 364.177 213.21 364.382 212.577L364.405 212.505C364.609 211.87 365.055 211.29 365.644 210.86C374.084 204.701 364.326 200.215 379.945 187.793C372.379 196.383 366.143 214.41 365.199 214.149C365.145 214.134 365.091 214.116 365.039 214.094Z" fill="#EEC3F7"/>
<path d="M323.859 171.308L325.394 176.032H330.361L326.342 178.952L327.877 183.676L323.859 180.756L319.84 183.676L321.375 178.952L317.356 176.032H322.324L323.859 171.308Z" fill="#00C7FD"/>
<path d="M392.311 114.687L393.846 119.411H398.813L394.795 122.331L396.33 127.055L392.311 124.135L388.292 127.055L389.827 122.331L385.809 119.411H390.776L392.311 114.687Z" fill="#EEC3F7"/>
<path d="M428.65 165.392L430.185 170.116H435.152L431.133 173.036L432.668 177.76L428.65 174.84L424.631 177.76L426.166 173.036L422.147 170.116H427.115L428.65 165.392Z" fill="#00C7FD"/>
<path d="M355.127 216.943L356.662 221.667H361.63L357.611 224.587L359.146 229.311L355.127 226.391L351.109 229.311L352.644 224.587L348.625 221.667H353.592L355.127 216.943Z" fill="#00C7FD"/>
<path d="M383.015 165.392L384.55 170.116H389.517L385.499 173.036L387.034 177.76L383.015 174.84L378.996 177.76L380.531 173.036L376.513 170.116H381.48L383.015 165.392Z" fill="#00C7FD"/>
<path d="M421.366 114.687L422.901 119.411H427.868L423.849 122.331L425.384 127.055L421.366 124.135L417.347 127.055L418.882 122.331L414.863 119.411H419.831L421.366 114.687Z" fill="#EEC3F7"/>
<path d="M321.255 208.055L323.202 212.625L328.15 212.186L324.405 215.449L326.352 220.019L322.091 217.466L318.346 220.73L319.457 215.888L315.196 213.335L320.144 212.896L321.255 208.055Z" fill="#EEC3F7"/>
<path d="M363.75 120.773C364.646 120.332 365.653 120.629 366.223 121.428L366.287 121.519C366.86 122.32 367.132 123.335 367.084 124.373C366.401 139.223 381.254 132.585 381.23 161C378.126 144.901 362.302 121.698 363.529 120.899C363.599 120.853 363.673 120.81 363.75 120.773Z" fill="#00C7FD"/>
<path d="M350.796 142.785C351.193 142.289 351.845 142.22 352.377 142.571L352.437 142.61C352.971 142.961 353.389 143.518 353.631 144.17C357.085 153.493 363.843 145.688 371.185 163.206C365.246 154.061 350.209 143.717 350.702 142.918C350.731 142.872 350.762 142.827 350.796 142.785Z" fill="#EEC3F7"/>
<path d="M339.362 169.884C339.417 169.251 339.92 168.832 340.557 168.827L340.629 168.826C341.269 168.821 341.926 169.052 342.489 169.459C350.543 175.288 351.822 165.043 367.664 175.522C357.642 171.222 339.393 170.985 339.358 170.046C339.356 169.992 339.358 169.938 339.362 169.884Z" fill="#EEC3F7"/>
</svg>
