<svg width="32" height="32" viewBox="0 0 32 32" fill="none" xmlns="http://www.w3.org/2000/svg">
<path d="M9.51413 10.0708C9.61176 9.97316 9.77005 9.97316 9.86768 10.0708L10.9283 11.1314C11.026 11.2291 11.026 11.3874 10.9283 11.485L6.41421 15.9991L10.9253 20.5102C11.023 20.6079 11.023 20.7662 10.9253 20.8638L9.86478 21.9243C9.76715 22.022 9.60886 22.022 9.51122 21.9243L4.84204 17.2551C4.83524 17.2496 4.82867 17.2437 4.82235 17.2374L3.7617 16.1768C3.66407 16.0791 3.66407 15.9208 3.7617 15.8232L9.51413 10.0708Z" fill="white"/>
<path d="M22.4893 10.0751C22.3917 9.97745 22.2334 9.97745 22.1358 10.0751L21.0751 11.1357C20.9775 11.2334 20.9775 11.3916 21.0751 11.4893L25.5849 15.9991L21.0732 20.5107C20.9756 20.6084 20.9756 20.7666 21.0732 20.8643L22.1338 21.9248C22.2314 22.0225 22.3897 22.0225 22.4873 21.9248L28.23 16.1822C28.2595 16.1527 28.2801 16.1176 28.2918 16.0803C28.3234 15.9921 28.3039 15.8896 28.2332 15.819L22.4893 10.0751Z" fill="white"/>
<path d="M16.699 12.7151C16.8847 12.5335 17 12.2802 17 12C17 11.7239 16.8881 11.4738 16.7071 11.2929C16.5261 11.1119 16.2761 11 16 11C15.7239 11 15.4739 11.1119 15.2929 11.2929C15.1119 11.4738 15 11.7239 15 12C15 12.2761 15.1119 12.5262 15.2929 12.7071C15.4739 12.8881 15.7239 13 16 13C16.2721 13 16.5187 12.8914 16.699 12.7151Z" fill="white"/>
<path d="M16 14C15.5858 14 15.25 14.3358 15.25 14.75V20.25C15.25 20.6642 15.5858 21 16 21C16.4142 21 16.75 20.6642 16.75 20.25V14.75C16.75 14.3358 16.4142 14 16 14Z" fill="white"/>
</svg>
