<svg width="24" height="20" viewBox="0 0 24 20" fill="none" xmlns="http://www.w3.org/2000/svg">
<path d="M16 4C14.8954 4 14 4.89543 14 6C14 7.10457 14.8954 8 16 8C17.1046 8 18 7.10457 18 6C18 4.89543 17.1046 4 16 4Z" fill="white"/>
<path d="M9.35356 8.15013C9.15829 7.95487 8.84171 7.95487 8.64645 8.15013L4 12.7966V15.6091L4.00796 15.617L9 10.625L14.0214 15.6465C14.2167 15.8417 14.5333 15.8417 14.7286 15.6465L15.4357 14.9394C15.6309 14.7441 15.6309 14.4275 15.4357 14.2322L14.383 13.1795L16 11.5625L20 15.5625V12.7341L16.3536 9.08763C16.1583 8.89237 15.8417 8.89237 15.6464 9.08763L12.9687 11.7653L9.35356 8.15013Z" fill="white"/>
<path fill-rule="evenodd" clip-rule="evenodd" d="M2 0C0.895431 0 0 0.895431 0 2V18C0 19.1046 0.89543 20 2 20H22C23.1046 20 24 19.1046 24 18V2C24 0.895431 23.1046 0 22 0H2ZM2 18V2H22V18H2Z" fill="white"/>
</svg>
