<svg width="295" height="276" viewBox="0 0 295 276" fill="none" xmlns="http://www.w3.org/2000/svg">
<g clip-path="url(#clip0_4938_6544)">
<path opacity="0.04" d="M129.708 148.252C139.321 154.971 146.989 164.291 155.005 173.054C167.932 187.188 182.451 200.365 200.133 206.797C217.816 213.229 239.258 211.873 254.774 199.031C270.29 186.19 276.957 160.546 266.134 144.469C253.929 126.337 227.275 126.911 212.389 111.299C204.18 102.687 200.604 90.2653 196.259 78.7461C189.777 61.5635 180.778 45.158 167.388 33.6764C153.999 22.1948 135.704 16.1869 118.359 20.965C101.013 25.7431 85.7041 42.7601 84.8169 61.7202C84.5021 68.4458 85.7569 75.7035 82.3182 81.5415C77.7545 89.2893 67.6034 90.1041 59.5129 88.5364C51.4246 86.9687 42.9093 84.0277 35.0698 87.5296C1.97912 102.31 39.6224 140.385 55.1099 148.155C66.0602 153.648 75.4473 150.023 86.5428 145.066C102.213 138.064 115.878 138.59 129.705 148.252H129.708Z" fill="white"/>
<path opacity="0.04" d="M187.607 134.949C193.795 134.767 198.586 135.653 204.167 136.951C209.75 138.25 215.247 140.164 221.059 140.157C231.835 140.146 241.907 132.977 245.469 123.997C249.031 115.017 246.592 104.814 240.41 97.2204C234.228 89.6271 224.676 84.4957 214.454 81.7269C204.233 78.9581 193.329 78.3995 182.55 78.6732C155.749 79.3511 128.88 85.1449 104.961 96.2445C81.0414 107.346 60.1537 123.811 45.8154 143.937C41.0998 150.557 36.9632 158.274 38.775 165.783C40.2478 171.884 45.5996 176.832 51.9993 179.504C58.3991 182.175 65.7455 182.791 72.9025 182.443C98.037 181.219 120.763 168.93 142.467 157.346C164.174 145.763 162.486 134.567 187.609 134.949" fill="white"/>
<path opacity="0.07" d="M259.807 237.583C259.699 237.563 258.332 237.395 258.224 237.389C191.18 233.779 132.107 238.108 64.4154 241.571C59.1935 241.838 53.791 242.136 49.104 243.651C44.4192 245.165 40.6349 248.252 41.4538 251.288C42.3146 254.479 47.8976 256.448 53.3485 256.66C58.7994 256.872 64.2239 255.759 69.5823 254.889C99.9519 249.961 131.479 252.624 162.278 254.287C193.079 255.949 225.893 256.351 253.99 247.57C257.09 246.6 260.223 245.461 262.149 243.717C263.785 242.233 264.247 240.239 262.911 238.771C262.129 237.91 260.91 237.786 259.804 237.583H259.807Z" fill="white"/>
<path d="M236.03 138.046L241.127 132.398L235.013 129.104L231.641 131.193C229.052 133.017 224.453 134.227 221.424 133.315C219.521 132.743 215.601 131.946 213.762 131.193C211.534 130.281 207.821 130.21 206.376 132.114C204.038 135.189 210.308 135.576 213.34 135.856C219.546 136.432 227.447 140.72 236.033 138.049" fill="#DD9F76"/>
<path d="M164.042 219.983C159.782 219.983 155.489 218.594 152.209 216.051L152.733 215.373C156.832 218.552 162.596 219.842 167.771 218.74C171.738 217.896 174.847 215.713 176.524 212.593C180.886 204.476 181.39 194.52 181.531 185.017C181.546 184.017 181.557 182.948 181.568 181.824C181.665 171.946 181.799 158.417 185.053 150.57C187.838 143.851 190.271 140.197 193.45 137.956C196.835 135.567 201.232 134.812 207.702 135.507L207.612 136.359C201.362 135.688 197.146 136.397 193.943 138.658C190.909 140.798 188.562 144.346 185.843 150.901C182.653 158.594 182.521 172.027 182.422 181.835C182.411 182.959 182.4 184.032 182.385 185.033C182.242 194.642 181.731 204.715 177.277 213.001C175.479 216.346 172.168 218.683 167.95 219.581C166.671 219.853 165.358 219.985 164.042 219.985V219.983Z" fill="#D2F9FF"/>
<path d="M124.745 63.5374L127.799 62.928C129.397 62.6101 130.775 64.0784 130.361 65.6571L127.999 75.5511C127.754 76.4851 128.943 77.1034 129.564 76.3659L139.416 63.8244C141.461 61.3956 141.107 57.5162 137.08 56.9973L132.479 56.6264C131.988 56.5226 131.68 56.0368 131.783 55.5444C132.334 52.9523 133.994 44.8047 134.41 41.3249C134.5 40.5786 133.012 40.561 132.582 41.1792C130.051 44.8246 125.168 51.6186 121.022 58.9624C119.706 61.2963 122.002 64.0408 124.745 63.5374Z" fill="#FF5662"/>
<path d="M104.98 82.1929L105.945 82.0008C106.449 81.8993 106.885 82.363 106.755 82.8642L106.009 85.9907C105.932 86.2866 106.306 86.4809 106.504 86.2468L109.617 82.2857C110.262 81.5173 110.152 80.2919 108.879 80.1285L107.426 80.0114C107.272 79.9783 107.173 79.826 107.206 79.6692C107.38 78.85 107.904 76.2777 108.036 75.1781C108.065 74.9419 107.594 74.9375 107.459 75.1318C106.66 76.2843 105.117 78.4305 103.807 80.7489C103.391 81.4864 104.118 82.3541 104.983 82.1952L104.98 82.1929Z" fill="#0095CA"/>
<path d="M151.077 82.1929L152.041 82.0008C152.546 81.8993 152.981 82.363 152.852 82.8642L152.105 85.9907C152.028 86.2866 152.402 86.4809 152.601 86.2468L155.714 82.2857C156.359 81.5173 156.248 80.2919 154.976 80.1285L153.523 80.0114C153.369 79.9783 153.27 79.826 153.303 79.6692C153.477 78.85 154.001 76.2777 154.133 75.1781C154.161 74.9419 153.69 74.9375 153.556 75.1318C152.757 76.2843 151.214 78.4305 149.904 80.7489C149.488 81.4864 150.214 82.3541 151.079 82.1952L151.077 82.1929Z" fill="#0095CA"/>
<mask id="mask0_4938_6544" style="mask-type:luminance" maskUnits="userSpaceOnUse" x="82" y="92" width="94" height="124">
<path d="M175.298 134.834C173.504 112.162 155.044 93.8842 132.42 92.3496C105.707 90.5368 83.4475 111.493 82.9808 137.784H82.9609L82.9808 137.834C82.9763 138.097 82.9609 138.358 82.9609 138.62C82.9609 148.051 85.7722 156.821 90.5957 164.141C94.7367 170.424 98.444 176.984 101.209 183.986L113.755 215.753H144.409L156.242 185.79C159.265 178.139 163.329 170.981 167.844 164.11C173.288 155.823 176.155 145.684 175.296 134.836L175.298 134.834Z" fill="white"/>
</mask>
<g mask="url(#mask0_4938_6544)">
<path d="M130.658 112.306C72.6357 123.681 99.4653 186.689 65.6548 186.689C18.1906 186.689 -20.2871 154.366 -20.2871 114.494C-20.2871 74.6216 18.9061 50.5301 65.6548 42.2965C155.088 26.5446 177.429 103.134 130.658 112.303V112.306Z" fill="#00C7FD"/>
</g>
<path d="M236.385 88.5653C236.942 87.6778 236.775 86.5676 236.011 86.0854C235.248 85.6033 234.177 85.9318 233.62 86.8192C233.063 87.7066 233.23 88.8169 233.994 89.2991C234.757 89.7812 235.828 89.4527 236.385 88.5653Z" fill="#E6E6E6"/>
<path d="M237.515 95.4695L243.118 104.759L238.217 107.302L233.462 97.3154L237.515 95.4695Z" fill="#FFC599"/>
<path d="M239.182 87.9733C236.311 83.2172 230.466 81.495 226.129 84.1269C222.67 86.2245 221.746 89.2694 223.344 93.4447C223.749 94.5045 224.317 95.635 225.046 96.8428C227.916 101.599 231.811 106.426 234.134 101.908C238.517 93.3829 242.052 92.7293 239.182 87.9733Z" fill="#FFC599"/>
<path d="M224.18 92.5527L223.966 98.1036C223.949 98.5673 224.367 98.9272 224.821 98.8389L226.355 98.5408L224.18 92.5549V92.5527Z" fill="#FFC599"/>
<path d="M240.41 96.3703C240.691 94.3831 242.871 94.2241 243.238 92.2524C243.555 90.5567 242.276 90.5302 243.298 87.5494C243.597 86.6772 243.412 85.7101 242.884 84.955C242.743 84.754 242.642 84.6083 242.631 84.5951C241.697 83.5198 242.058 81.8858 241.891 80.4705C241.669 78.6158 240.359 76.9333 238.62 76.2687C236.905 75.6151 235.337 75.7763 233.53 76.0943C231.54 76.4431 230.575 76.3592 228.585 76.7081C227.297 76.9333 225.908 77.2137 225.037 78.1896C223.861 79.5056 223.949 81.7467 222.505 82.758C221.853 83.2128 221.01 83.2018 220.308 83.6589C220.303 83.6611 220.299 83.6633 220.295 83.6655C216.642 86.0479 218.859 89.7176 221.4 90.0466C221.904 90.0996 222.39 89.923 223.372 90.0466C228.625 90.7156 231.093 83.1179 231.707 89.4747C232.205 94.6348 237.678 98.6843 238.699 98.256C238.961 98.1456 239.287 98.4922 239.366 98.5297C239.987 98.8278 240.337 96.9245 240.416 96.3703H240.41Z" fill="#005B85"/>
<path d="M235.234 90.7841C235.85 92.2591 234.578 94.1403 233.637 94.5377C232.697 94.9329 232.281 93.3012 231.828 92.2171C231.374 91.133 231.768 89.9318 232.708 89.5366C233.649 89.1414 234.778 89.7 235.231 90.7841H235.234Z" fill="#FFC599"/>
<path d="M258.604 234.386H254.234L249.895 223.116H255.414L258.604 234.386Z" fill="#DD9F76"/>
<path d="M239.068 238.15C239.689 237.579 241.961 237.331 242.998 237.137C243.731 236.998 244.539 236.781 245.226 236.49C246.751 235.839 251.282 233.991 251.282 233.991C252.138 233.525 253.151 233.452 254.067 233.785C254.415 233.911 254.743 234.026 254.941 234.086C256.517 234.556 257.446 234.192 258.851 233.333C259.212 233.112 259.672 233.379 259.661 233.803L260.053 238.435C260.123 239.257 259.502 239.813 258.65 239.954C254.725 240.599 243.724 240.663 239.81 239.954C238.826 239.776 238.377 238.789 239.068 238.153V238.15Z" fill="#005B85"/>
<path d="M232.87 162.61C234.34 166.936 235.305 171.418 235.751 175.967C237.356 192.334 239.118 206.366 244.584 222.759C245.143 224.434 245.83 226.243 247.437 227.17C249.277 228.232 251.723 227.855 253.848 227.462C254.753 227.294 257.403 226.788 257.403 226.788C259.985 226.183 261.445 223.655 260.551 221.334C257.346 213.001 252.85 204.578 250.759 195.953C250.028 192.944 249.449 190.126 249.346 188.097C249.2 185.273 249.225 181.226 249.39 174.35C249.581 166.386 252.095 155.774 249.72 148.117C249.15 146.28 249.412 145.909 247.902 144.602C245.086 142.162 239.085 148.967 235.272 149.51C233.59 149.749 231.705 150.104 230.785 151.427C230.118 152.383 230.144 153.602 230.193 154.739L232.87 162.61Z" fill="#E96115"/>
<path d="M223.9 236.706H219.53L220.677 225.437H226.833L223.9 236.706Z" fill="#FFC599"/>
<path d="M203.649 240.219C204.318 239.601 206.768 239.338 207.884 239.126C208.675 238.976 209.547 238.744 210.286 238.429C211.931 237.727 216.816 235.733 216.816 235.733C217.738 235.232 218.83 235.152 219.817 235.51C220.191 235.647 220.545 235.77 220.759 235.834C222.458 236.34 223.46 235.949 224.972 235.024C225.362 234.786 225.857 235.075 225.846 235.532L226.269 240.526C226.344 241.412 225.675 242.012 224.759 242.162C220.528 242.858 208.668 242.926 204.45 242.162C203.389 241.97 202.907 240.906 203.649 240.219Z" fill="#0095CA"/>
<path d="M232.121 149.197C222.496 174.118 216.744 199.19 215.43 225.686C215.388 226.521 215.357 227.386 215.689 228.161C216.588 230.257 219.498 230.65 221.893 230.723C225.079 230.82 228.911 230.597 230.486 227.98C231.569 226.181 231.098 223.951 230.849 221.895C230.204 216.561 231.294 211.189 232.379 205.916C233.623 199.875 234.184 195.258 235.426 189.217C236.108 185.898 237.812 177.121 239.281 174.037C240.932 170.568 243.109 166.13 245.423 163.021C250.543 156.143 250.132 153.348 250.546 149.78C250.984 145.995 249.381 147.691 246.827 144.75C243.342 140.736 239.954 143.335 234.455 143.2" fill="#FF8F51"/>
<path d="M233.929 119.634C234.869 131.149 230.585 135.951 229.592 144.644L227.938 150.232C227.938 153.809 231.078 151.705 234.88 151.542C242.825 151.202 252.892 159.497 254.213 151.367C254.861 147.393 252.153 143.014 252.065 139.579C251.981 136.326 251.734 131.372 251.816 129.014C251.816 129.014 250.979 119.459 250.246 114.781C249.429 109.57 249.002 107.285 245.995 104.951C245.995 104.951 244.37 103.838 242.983 103.838C233.059 103.838 233.927 119.634 233.927 119.634H233.929Z" fill="#0095CA"/>
<path d="M213.008 134.037H208.933C208.75 134.037 208.603 134.185 208.603 134.368V134.465C208.603 134.648 208.75 134.796 208.933 134.796H213.008C213.19 134.796 213.338 134.648 213.338 134.465V134.368C213.338 134.185 213.19 134.037 213.008 134.037Z" fill="#FEC91B"/>
<path d="M213.008 136.808H208.933C208.75 136.808 208.603 136.956 208.603 137.139V137.236C208.603 137.419 208.75 137.567 208.933 137.567H213.008C213.19 137.567 213.338 137.419 213.338 137.236V137.139C213.338 136.956 213.19 136.808 213.008 136.808Z" fill="#FEC91B"/>
<path d="M205.956 132.95H209.825C210.287 132.95 210.661 133.326 210.661 133.789V137.918C210.661 138.382 210.287 138.757 209.825 138.757H205.956C204.358 138.757 203.062 137.457 203.062 135.854C203.062 134.251 204.358 132.95 205.956 132.95Z" fill="#0095CA"/>
<mask id="mask1_4938_6544" style="mask-type:luminance" maskUnits="userSpaceOnUse" x="203" y="132" width="8" height="7">
<path d="M205.956 132.95H209.825C210.287 132.95 210.661 133.326 210.661 133.789V137.918C210.661 138.382 210.287 138.757 209.825 138.757H205.956C204.358 138.757 203.062 137.457 203.062 135.854C203.062 134.251 204.358 132.95 205.956 132.95Z" fill="white"/>
</mask>
<g mask="url(#mask1_4938_6544)">
<path d="M212.385 144.282C214.232 144.282 215.729 140.658 215.729 136.187C215.729 131.717 214.232 128.093 212.385 128.093C210.538 128.093 209.041 131.717 209.041 136.187C209.041 140.658 210.538 144.282 212.385 144.282Z" fill="#FFE17A"/>
</g>
<path d="M246.177 241.624C238.424 241.624 231.92 239.179 228.255 234.865C221.344 226.733 221.179 219.93 221.725 209.694C222.152 201.688 225.82 189.705 231.535 177.638C235.989 168.234 233.624 155.322 232.059 146.779C231.511 143.785 231.077 141.414 231.018 139.747L229.611 133.827C228.878 132.27 227.621 131.588 226.236 132.003C224.074 132.65 222.254 135.724 222.956 140.347C223.013 140.727 222.753 141.08 222.375 141.14C221.996 141.197 221.644 140.937 221.584 140.557C220.761 135.149 223.101 131.491 225.838 130.672C227.9 130.053 229.886 131.089 230.897 133.31L230.925 133.372L232.396 139.563V139.634C232.442 141.197 232.896 143.668 233.42 146.527C235.016 155.247 237.431 168.424 232.783 178.234C227.143 190.144 223.524 201.933 223.106 209.769C222.577 219.661 222.731 226.225 229.307 233.964C232.768 238.038 239.348 240.378 246.899 240.226C255.393 240.054 264.318 236.848 272.029 231.195C272.338 230.968 272.771 231.036 272.998 231.345C273.225 231.655 273.157 232.09 272.848 232.317C264.908 238.137 255.703 241.438 246.928 241.617C246.675 241.621 246.424 241.624 246.175 241.624H246.177Z" fill="url(#paint0_linear_4938_6544)"/>
<path d="M225.336 142.42V145.066C225.336 145.529 224.962 145.905 224.499 145.905H220.383C219.92 145.905 219.546 145.529 219.546 145.066V142.42C219.546 140.817 220.843 139.517 222.441 139.517C224.039 139.517 225.336 140.817 225.336 142.42Z" fill="#0095CA"/>
<path d="M225.336 142.42V145.066C225.336 145.529 224.962 145.905 224.499 145.905H220.383C219.92 145.905 219.546 145.529 219.546 145.066V142.42C219.546 140.817 220.843 139.517 222.441 139.517C224.039 139.517 225.336 140.817 225.336 142.42Z" fill="#0095CA"/>
<path d="M175.298 134.834C173.504 112.162 155.044 93.8842 132.42 92.3496C105.707 90.5368 83.4475 111.493 82.9808 137.784H82.9609L82.9808 137.834C82.9763 138.097 82.9609 138.358 82.9609 138.62C82.9609 148.051 85.7722 156.821 90.5957 164.141C94.7367 170.424 98.444 176.984 101.209 183.986L113.755 215.753H144.409L156.242 185.79C159.265 178.139 163.329 170.981 167.844 164.11C173.288 155.823 176.155 145.684 175.296 134.836L175.298 134.834Z" fill="#0095CA"/>
<path d="M136.396 198.159H135.735V162.158H122.671V198.159H122.011V162.158H116.052C112.401 162.158 109.432 159.179 109.432 155.518C109.432 151.857 112.401 148.879 116.052 148.879C119.702 148.879 122.671 151.857 122.671 155.518V161.495H135.735V155.518C135.735 151.857 138.705 148.879 142.355 148.879C146.005 148.879 148.975 151.857 148.975 155.518C148.975 159.179 146.005 162.158 142.355 162.158H136.396V198.159ZM136.396 161.495H142.355C145.642 161.495 148.314 158.815 148.314 155.518C148.314 152.222 145.64 149.541 142.355 149.541C139.07 149.541 136.396 152.222 136.396 155.518V161.495ZM116.052 149.539C112.765 149.539 110.092 152.22 110.092 155.516C110.092 158.813 112.765 161.493 116.052 161.493H122.011V155.516C122.011 152.22 119.336 149.539 116.052 149.539Z" fill="#FFE17A"/>
<path d="M131.398 105.9C129.936 106.373 129.996 108.45 131.458 108.921C144.493 113.107 153.977 125.302 154.089 139.777C154.089 139.793 154.089 139.808 154.089 139.824C154.1 141.396 156.075 142.019 156.979 140.736C159.353 137.375 160.847 133.361 161.105 129.042C161.891 115.847 151.52 104.937 138.615 104.809V104.798L138.59 104.809C138.461 104.809 138.333 104.801 138.205 104.803C135.83 104.82 133.545 105.205 131.398 105.9Z" fill="#A0EBFF"/>
<path d="M111.169 220.551H146.362V237.137C146.362 239.983 144.057 242.295 141.219 242.295H116.312C113.474 242.295 111.169 239.983 111.169 237.137V220.551Z" fill="#1A1A1A"/>
<path d="M107.208 198.159H150.322C152.176 198.159 153.681 199.669 153.681 201.529V225.843C153.681 229.873 150.419 233.145 146.401 233.145H111.131C107.113 233.145 103.851 229.873 103.851 225.843V201.529C103.851 199.669 105.356 198.159 107.21 198.159H107.208Z" fill="#005B85"/>
<path d="M153.48 203.257H103.849C102.527 203.257 101.456 204.332 101.456 205.656C101.456 206.981 102.527 208.055 103.849 208.055H153.48C154.801 208.055 155.873 206.981 155.873 205.656C155.873 204.332 154.801 203.257 153.48 203.257Z" fill="#00C7FD"/>
<path d="M153.48 212.752H103.849C102.527 212.752 101.456 213.826 101.456 215.151C101.456 216.476 102.527 217.55 103.849 217.55H153.48C154.801 217.55 155.873 216.476 155.873 215.151C155.873 213.826 154.801 212.752 153.48 212.752Z" fill="#00C7FD"/>
<path d="M153.48 222.75H103.849C102.527 222.75 101.456 223.824 101.456 225.149C101.456 226.474 102.527 227.548 103.849 227.548H153.48C154.801 227.548 155.873 226.474 155.873 225.149C155.873 223.824 154.801 222.75 153.48 222.75Z" fill="#00C7FD"/>
<path d="M92.5463 211.785C101.889 184.841 85.3408 167.258 82.2829 196.15C79.7512 158.667 47.07 161.676 65.8818 198.4C64.4926 196.62 62.6632 194.602 60.6576 193.213C56.2833 190.186 50.5484 193.726 51.2925 199.003C52.369 206.636 60.2482 215.269 65.0562 219.641C58.5068 211.984 45.6435 215.267 52.9568 226.053C72.2199 252.458 104.223 251.341 109.925 215.15C111.468 205.355 104.133 201.222 98.7082 205.141C96.0114 207.091 95.5227 208.038 92.5463 211.783V211.785Z" fill="#FFE17A"/>
<path d="M84.8519 244.501C84.8321 244.501 84.8123 244.501 84.7925 244.494C84.645 244.461 84.5503 244.315 84.5833 244.165C87.06 232.778 82.7759 217.83 78.745 207.296C74.3684 195.861 69.338 187.013 69.2873 186.925C69.2125 186.792 69.2565 186.625 69.3886 186.547C69.5207 186.472 69.688 186.516 69.7651 186.649C69.8157 186.737 74.8637 195.616 79.2557 207.088C83.3153 217.696 87.628 232.756 85.1227 244.28C85.0941 244.408 84.9796 244.496 84.8541 244.496L84.8519 244.501Z" fill="#333333"/>
<path d="M77.321 232.193C73.4661 232.193 67.9184 231.085 61.9854 226.271C61.8665 226.177 61.8489 226.002 61.9435 225.883C62.0382 225.764 62.2121 225.746 62.331 225.841C68.5744 230.906 74.3643 231.78 78.1267 231.624C82.2039 231.454 84.8413 230.065 84.8677 230.052C85.002 229.981 85.1693 230.032 85.2397 230.164C85.3124 230.299 85.2617 230.467 85.1274 230.537C85.0174 230.597 82.3734 231.99 78.1795 232.173C77.9043 232.185 77.6182 232.191 77.321 232.191V232.193Z" fill="#333333"/>
<path d="M80.5615 211.321C80.4294 211.321 80.3105 211.224 80.2907 211.089C80.2665 210.939 80.3677 210.798 80.5196 210.774C80.7134 210.74 85.178 209.91 84.8258 202.328C84.8192 202.176 84.9358 202.048 85.0877 202.039C85.2396 202.03 85.3673 202.149 85.3761 202.301C85.5721 206.508 84.282 208.731 83.1658 209.855C81.9374 211.094 80.6605 211.31 80.6077 211.319C80.5923 211.321 80.5791 211.323 80.5637 211.323L80.5615 211.321Z" fill="#333333"/>
<path d="M126.916 229.02C128.248 226.433 128.948 222.657 125.926 221.345C124.539 220.743 122.918 220.999 121.688 221.88C119.277 223.602 117.17 225.719 115.414 228.1C117.056 223.037 118.08 217.773 118.423 212.46C118.471 211.701 118.247 210.921 117.719 210.374C116.332 208.939 114.399 210.191 113.199 211.46C109.064 215.836 106.35 224.101 105.291 230.029C105.291 230.029 105.348 223.69 105.034 221.719C104.838 220.495 104.347 219.294 103.264 218.696C100.743 217.303 98.7021 220.133 98.0834 222.571C96.9915 226.885 97.5661 231.573 99.4307 235.651C99.1732 235.651 98.9156 235.642 98.658 235.66C96.855 235.772 95.0388 236.327 93.9072 237.38C91.851 239.29 92.7184 242.317 95.085 244.015C97.4516 245.715 100.873 246.327 104.151 246.488C105.331 246.545 107.689 246.517 110.837 246.19C111.554 246.115 113.368 246.157 114.09 246.172C116.072 246.212 117.562 246.044 121.069 245.342C122.324 245.09 123.497 244.428 124.246 243.386C126.414 240.37 123.253 237.521 120.288 237.537C122.991 235.134 125.261 232.24 126.916 229.02Z" fill="#FF5662"/>
<path d="M108.199 246.541C108.061 246.541 107.942 246.437 107.926 246.296C106.385 232.69 112.715 221.535 112.778 221.423C112.855 221.29 113.023 221.246 113.155 221.321C113.287 221.398 113.331 221.566 113.256 221.699C113.192 221.809 106.953 232.814 108.474 246.232C108.492 246.384 108.382 246.521 108.232 246.537C108.221 246.537 108.21 246.537 108.201 246.537L108.199 246.541Z" fill="#333333"/>
<path d="M107.774 240.255C107.259 240.255 105.326 240.16 103.915 238.808C102.916 237.852 102.409 236.49 102.409 234.755C102.409 234.602 102.532 234.479 102.684 234.479C102.836 234.479 102.96 234.602 102.96 234.755C102.96 236.329 103.409 237.559 104.291 238.404C105.727 239.78 107.856 239.7 107.878 239.698C108.034 239.692 108.157 239.809 108.166 239.961C108.175 240.113 108.056 240.241 107.904 240.25C107.893 240.25 107.847 240.252 107.776 240.252L107.774 240.255Z" fill="#333333"/>
<path d="M109.861 236.559C109.196 236.559 108.74 236.468 108.696 236.459C108.547 236.428 108.452 236.283 108.481 236.135C108.509 235.987 108.657 235.889 108.804 235.918C108.829 235.923 111.18 236.38 113.009 235.099C114.136 234.311 114.845 233.024 115.116 231.275C115.14 231.125 115.281 231.021 115.431 231.045C115.58 231.069 115.684 231.209 115.66 231.361C115.365 233.266 114.579 234.68 113.32 235.558C112.135 236.384 110.792 236.561 109.861 236.561V236.559Z" fill="#333333"/>
<path d="M212.809 132.398C211.935 131.149 210.658 131.001 208.952 130.895C208.813 130.886 208.666 130.879 208.54 130.937C208.362 131.018 208.263 131.208 208.177 131.387C207.644 132.489 207.112 133.743 207.129 134.922C207.14 135.761 207.772 135.916 208.389 135.348C208.818 134.953 209.159 134.465 209.375 133.924C209.489 133.639 209.575 133.328 209.793 133.112C210.502 132.409 212.488 133.346 212.811 132.401" fill="#DD9F76"/>
<path d="M226.21 135.242L225.681 135.81C225.001 136.543 224.871 137.596 225.362 138.424L226.855 140.948C226.991 141.18 227.231 141.339 227.509 141.383L229.318 141.665C229.785 141.738 230.263 141.555 230.555 141.188L231.636 139.877C233.056 140.093 233.902 139.281 234.346 138.616C234.668 138.135 235.19 137.828 235.769 137.826L241.442 137.801C246.327 137.638 252.887 136.64 257.711 135.713C259.529 135.364 262.398 135.136 263.463 133.617C264.714 131.831 263.195 128.548 262.316 126.552C260.608 122.677 257.158 118.607 253.451 116.578C252.269 115.883 252.696 116.006 251.148 115.423C249.094 114.648 246.107 115.739 246.831 118.704C247.053 119.612 247.604 120.411 248.299 121.032C250.611 123.089 251.685 124.151 253.686 125.96C254.42 126.622 255.324 127.386 256.247 129.139C256.374 129.38 254.911 130.206 253.484 130.387C248.286 131.054 242.598 131.767 238.307 132.84C237.646 133.006 236.973 133.12 236.295 133.202L235.172 133.339C235.172 133.339 234.21 133.436 232.035 133.301C230.767 133.224 229.496 133.502 228.372 134.099L226.212 135.244L226.21 135.242Z" fill="#FFC599"/>
<path d="M253.395 116.448C253.406 116.474 253.428 116.521 253.452 116.577C253.423 116.512 253.406 116.47 253.395 116.448Z" fill="#FFC599"/>
<path d="M251.265 110.939C250.585 110.064 249.772 109.155 248.854 108.393C248.619 108.159 248.379 107.929 248.123 107.717C246.074 106.015 243.117 105.105 240.594 107.684C240.141 108.148 239.766 108.691 239.502 109.283C238.65 111.188 239.108 112.615 240.257 114.275C241.466 116.022 242.305 116.708 244.641 119.075C245.699 120.221 246.758 121.369 247.82 122.515C248.249 122.979 248.951 123.063 249.475 122.71C250.239 122.193 251.02 121.561 251.595 120.82C252.326 119.879 252.482 118.581 253.213 117.64C254.03 116.587 255.289 115.666 255.641 114.41C255.782 113.906 255.373 113.412 254.851 113.432C254.305 113.451 253.739 113.292 253.257 113.023C253.039 112.902 252.839 112.758 252.645 112.604C252.106 111.976 251.637 111.413 251.269 110.939H251.265Z" fill="#00C7FD"/>
</g>
<defs>
<linearGradient id="paint0_linear_4938_6544" x1="221.419" y1="186.059" x2="273.135" y2="186.059" gradientUnits="userSpaceOnUse">
<stop stop-color="white"/>
<stop offset="1" stop-color="white" stop-opacity="0"/>
</linearGradient>
<clipPath id="clip0_4938_6544">
<rect width="295" height="276" fill="white"/>
</clipPath>
</defs>
</svg>
