<svg width="16" height="16" viewBox="0 0 16 16" fill="none" xmlns="http://www.w3.org/2000/svg">
<path d="M8 10C9.10457 10 10 9.10457 10 8C10 6.89543 9.10457 6 8 6C6.89543 6 6 6.89543 6 8C6 9.10457 6.89543 10 8 10Z" fill="white"/>
<path fill-rule="evenodd" clip-rule="evenodd" d="M8.0004 12H8C5.33873 12 2.94819 10.8409 1.30566 9C1.27497 8.9656 1.24433 8.93198 1.21411 8.89883C0.9683 8.62912 0.75 8.3896 0.75 8C0.75 7.61927 0.991772 7.34987 1.25295 7.05885C1.27045 7.03935 1.28805 7.01974 1.30566 7C2.94819 5.1591 5.33873 4 8 4C10.6613 4 13.0518 5.1591 14.6943 7C14.9747 7.31426 15.2177 7.59375 15.2177 8C15.2177 8.40625 14.9705 8.69117 14.6875 9.00765C13.0453 10.844 10.6578 11.9999 8.0004 12ZM1.85201 8.11291C1.80818 8.063 1.78156 8.02955 1.76439 8.00551C1.78388 7.97614 1.8139 7.9365 1.86246 7.87938C1.90195 7.83292 1.94085 7.78957 1.98965 7.7352C2.00866 7.71401 2.02919 7.69114 2.05183 7.66576C2.79167 6.83657 3.70133 6.16351 4.72618 5.70113C4.26864 6.35151 4 7.14438 4 8C4 8.85562 4.26864 9.64849 4.72618 10.2989C3.70133 9.83649 2.79167 9.16343 2.05183 8.33424C2.01732 8.29556 1.98284 8.25774 1.9529 8.22489L1.94052 8.2113C1.90621 8.17364 1.87796 8.14248 1.85201 8.11291ZM11.2738 5.70113C12.2987 6.16352 13.2083 6.83657 13.9482 7.66576C14.0195 7.74569 14.0723 7.80555 14.1176 7.86143C14.1618 7.9159 14.1876 7.95316 14.2033 7.97937C14.2083 7.98777 14.2119 7.99438 14.2145 7.99936C14.2117 8.00488 14.2076 8.01239 14.2018 8.02206C14.1853 8.0496 14.1584 8.08809 14.1134 8.14349C14.0674 8.2002 14.0137 8.26092 13.9421 8.34104C13.2033 9.16711 12.2959 9.83775 11.2738 10.2989C11.7314 9.64849 12 8.85562 12 8C12 7.14438 11.7314 6.35151 11.2738 5.70113ZM8 11C9.65685 11 11 9.65685 11 8C11 6.34315 9.65685 5 8 5C6.34315 5 5 6.34315 5 8C5 9.65685 6.34315 11 8 11Z" fill="white"/>
</svg>
