<svg width="14" height="14" viewBox="0 0 14 14" fill="none" xmlns="http://www.w3.org/2000/svg">
<path d="M13.9958 6.99576C13.9958 10.8617 10.8617 13.9958 6.99576 13.9958C3.21358 13.9958 0.131999 10.9962 0.000151393 7.24616C-0.00470007 7.10817 0.107685 6.99576 0.245756 6.99576H0.745756C0.883827 6.99576 0.99522 7.10802 1.00088 7.24598C1.13206 10.4436 3.76587 12.9958 6.99576 12.9958C10.3095 12.9958 12.9958 10.3095 12.9958 6.99576C12.9958 3.76587 10.4436 1.13206 7.24598 1.00088C7.10802 0.99522 6.99576 0.883827 6.99576 0.745756V0.245756C6.99576 0.107685 7.10817 -0.00470007 7.24616 0.000151393C10.9962 0.131999 13.9958 3.21358 13.9958 6.99576Z" fill="#242528"/>
</svg>
