<svg width="16" height="17" viewBox="0 0 16 17" fill="none" xmlns="http://www.w3.org/2000/svg">
<path fill-rule="evenodd" clip-rule="evenodd" d="M9.63851 5.40911C9.86631 5.08435 10 4.68877 10 4.26196C10 3.15739 9.10457 2.26196 8 2.26196C6.89543 2.26196 6 3.15739 6 4.26196C6 4.77105 6.19021 5.23571 6.50344 5.58876L3.712 10.4237C3.4908 10.3394 3.25079 10.2932 3 10.2932C1.89543 10.2932 1 11.1886 1 12.2932C1 13.3978 1.89543 14.2932 3 14.2932C3.74028 14.2932 4.38663 13.891 4.73244 13.2932H11.3301C11.6759 13.891 12.3222 14.2932 13.0625 14.2932C14.1671 14.2932 15.0625 13.3978 15.0625 12.2932C15.0625 11.1886 14.1671 10.2932 13.0625 10.2932C12.8686 10.2932 12.6812 10.3208 12.504 10.3722L9.63851 5.40911ZM8 5.26196C8.55228 5.26196 9 4.81425 9 4.26196C9 3.70968 8.55228 3.26196 8 3.26196C7.44772 3.26196 7 3.70968 7 4.26196C7 4.81425 7.44772 5.26196 8 5.26196ZM11.0625 12.2932C11.0625 11.743 11.2847 11.2447 11.6442 10.8831L8.86337 6.06652C8.602 6.1918 8.3092 6.26196 8 6.26196C7.76681 6.26196 7.54294 6.22205 7.33485 6.1487L4.5306 11.0058C4.82352 11.3537 5 11.8028 5 12.2932H11.0625ZM4 12.2932C4 12.8455 3.55228 13.2932 3 13.2932C2.44772 13.2932 2 12.8455 2 12.2932C2 11.7409 2.44772 11.2932 3 11.2932C3.55228 11.2932 4 11.7409 4 12.2932ZM14.0625 12.2932C14.0625 12.8455 13.6148 13.2932 13.0625 13.2932C12.5102 13.2932 12.0625 12.8455 12.0625 12.2932C12.0625 11.7409 12.5102 11.2932 13.0625 11.2932C13.6148 11.2932 14.0625 11.7409 14.0625 12.2932Z" fill="white"/>
</svg>
