<svg width="24" height="24" viewBox="0 0 24 24" fill="none" xmlns="http://www.w3.org/2000/svg">
<g clip-path="url(#clip0_2889_15478)">
<path d="M10.657 23.994H1.207C0.887461 23.9927 0.58137 23.8652 0.355327 23.6394C0.129284 23.4135 0.00157918 23.1075 0 22.788L0 13.608H0.071C5.855 13.608 10.575 18.258 10.657 23.994ZM18.263 23.994H14.218C14.135 16.246 7.795 9.97701 0 9.94201V6.038H0.071C10.054 6.038 18.192 14.082 18.263 23.994ZM22.793 23.994H21.823C21.754 12.071 11.995 2.407 0 2.372V1.212C0 0.550005 0.544 0.00600488 1.207 0.00600488H8.847C15.733 2.49 21.257 7.78901 24 14.508V22.799C24 23.462 23.456 23.994 22.793 23.994ZM16.713 0.00600488H22.805C22.962 0.00534419 23.1176 0.0357696 23.2629 0.0955273C23.4081 0.155285 23.54 0.243193 23.6511 0.354185C23.7622 0.465177 23.8502 0.597057 23.9101 0.742224C23.97 0.887391 24.0005 1.04297 24 1.2V7.114C23.09 5.872 21.954 4.464 20.842 3.352C19.588 2.11 18.122 0.987005 16.714 0.00500488L16.713 0.00600488Z" fill="white"/>
</g>
<defs>
<clipPath id="clip0_2889_15478">
<rect width="24" height="24" fill="white"/>
</clipPath>
</defs>
</svg>
