<svg width="365" height="299" viewBox="0 0 365 299" fill="none" xmlns="http://www.w3.org/2000/svg">
<path opacity="0.04" d="M180.639 17.6417C149.825 19.1562 122.983 39.4425 98.1229 58.9441C71.446 79.8717 42.7141 104.179 36.8853 138.981C31.5786 170.653 47.346 202.405 67.8736 225.952C98.3397 260.901 141.786 284.219 186.486 283.321C231.184 282.424 275.903 254.977 294.4 211.507C314.061 165.301 295.75 128.316 274.013 88.879C253.324 51.3413 226.131 15.4067 180.642 17.6448L180.639 17.6417Z" fill="white"/>
<path opacity="0.04" d="M166.267 201.568C182.422 205.916 197.381 215.379 212.504 223.791C236.894 237.353 262.878 248.507 289.497 247.546C316.116 246.584 343.611 231.561 357.308 202.753C371.005 173.942 366.367 131.116 343.73 113.342C318.198 93.2942 283.442 110.28 255.702 95.6636C240.402 87.6028 229.209 70.9713 217.472 56.1748C199.964 34.0992 179.552 14.7259 155.941 5.45288C132.329 -3.82009 105.124 -1.84764 84.8073 15.8739C64.4904 33.5924 53.2511 68.5958 61.9928 97.8131C65.095 108.176 70.5391 118.399 69.0674 129.308C67.1132 143.79 54.1885 151.161 42.7293 153.68C31.2701 156.199 18.5347 156.901 10.0556 166.938C-25.7417 209.309 43.6697 244.144 68.1025 246.532C85.3752 248.22 95.8298 237.06 107.829 222.853C124.782 202.787 143.028 195.315 166.267 201.571V201.568Z" fill="white"/>
<path d="M101.39 30.0352H40.9187C30.5496 30.0352 22.1438 38.441 22.1438 48.8101V111.095C22.1438 121.464 30.5496 129.87 40.9187 129.87H101.39C111.759 129.87 120.165 121.464 120.165 111.095V48.8101C120.165 38.441 111.759 30.0352 101.39 30.0352Z" fill="#FF5662"/>
<path d="M72.8443 44.566C55.4129 42.4408 39.56 54.8526 37.4349 72.2841C35.3097 89.7156 47.7215 105.568 65.153 107.694C82.5845 109.819 98.4374 97.4069 100.563 79.9755C102.688 62.544 90.2758 46.6911 72.8443 44.566Z" fill="white"/>
<path d="M91.4897 93.8685C88.9667 90.8499 84.4748 90.4477 81.4569 92.9702C78.439 95.4927 78.0378 99.9846 80.5608 103.003L92.8286 117.681C95.3516 120.699 99.8435 121.101 102.861 118.579C105.879 116.056 106.281 111.564 103.758 108.546L91.4897 93.8685Z" fill="white"/>
<path d="M71.7267 53.7414C59.3607 52.2361 48.1184 61.0358 46.61 73.4018C45.1047 85.7678 53.9044 97.0101 66.2704 98.5185C78.6364 100.024 89.8788 91.2241 91.3871 78.8581C92.8924 66.4921 84.0927 55.2497 71.7267 53.7414Z" fill="#FF5662"/>
<path d="M74.768 76.1284L81.5983 69.2981C83.1921 67.7042 83.1921 65.1211 81.5983 63.5303C80.0044 61.9365 77.4213 61.9365 75.8305 63.5303L69.0002 70.3606L62.1699 63.5303C60.5761 61.9365 57.993 61.9365 56.4022 63.5303C54.8083 65.1242 54.8083 67.7073 56.4022 69.2981L63.2325 76.1284L56.4022 82.9587C54.8083 84.5525 54.8083 87.1357 56.4022 88.7264C57.996 90.3203 60.5791 90.3203 62.1699 88.7264L69.0002 81.8961L75.8305 88.7264C77.4244 90.3203 80.0075 90.3203 81.5983 88.7264C83.1921 87.1326 83.1921 84.5495 81.5983 82.9587L74.768 76.1284Z" fill="white"/>
<path d="M136.436 180.507L134.946 176.577C133.181 171.921 128.726 168.834 123.746 168.818L73.8672 168.641C65.4369 168.611 59.5929 177.044 62.5821 184.928L105.097 297.028L246.658 297.532C253.65 297.556 258.499 290.561 256.017 284.024L222.729 196.256C220.965 191.599 216.51 188.515 211.53 188.497L147.633 188.271C142.653 188.253 138.201 185.169 136.433 180.513L136.436 180.507Z" fill="#005B85"/>
<path d="M124 263.759C127.795 258.705 131.624 253.597 134.25 247.826C136.876 242.056 138.235 235.488 136.845 229.29C135.822 224.725 133.386 220.621 131.945 216.172C127.627 202.839 132.65 188.439 137.621 175.34C139.883 169.38 142.375 163.102 147.404 159.264C153.043 154.959 160.622 154.651 167.678 154.513C174.285 154.385 181.485 154.452 186.657 158.623C190.407 161.649 192.41 166.324 194.269 170.803C197.161 177.777 196.501 184.751 199.393 191.721C201.771 197.452 203.686 203.623 202.48 209.721C200.202 221.238 195.35 225.739 194.553 233.815C194.053 238.886 194.156 242.336 196.975 246.556C199.79 250.776 205.518 255.783 205.445 260.879C205.374 265.975 200.605 267.429 195.503 267.041" fill="#FF8F51"/>
<path d="M256.805 215.394C243.291 219.83 233.599 219.956 217.072 209.141C210.495 204.835 202.11 195.169 200.129 187.56L209.215 182.937C218.174 183.117 227.175 181.462 236.063 182.601C244.952 183.74 254.24 188.616 256.902 197.172L256.805 215.391V215.394Z" fill="#DD9F76"/>
<path d="M216.293 155.976C220.571 160.226 223.328 165.731 225.972 171.148C226.729 172.699 230.772 182.622 230.534 184.332C229.496 191.822 201.555 202.213 200.855 196.433C199.878 188.366 188.526 181.23 186.184 174.873C179.653 157.161 203.344 143.103 216.296 155.973L216.293 155.976Z" fill="#E96115"/>
<path d="M74.7466 215.394C88.2607 219.83 97.952 219.956 114.48 209.141C121.057 204.835 129.441 195.169 131.423 187.56L122.336 182.937C113.377 183.117 104.376 181.462 95.4879 182.601C86.5997 183.74 77.3114 188.616 74.6489 197.172L74.7466 215.391V215.394Z" fill="#DD9F76"/>
<path d="M116.012 155.976C111.735 160.226 108.977 165.731 106.333 171.148C105.576 172.699 101.533 182.622 101.772 184.332C102.81 191.822 130.751 202.213 131.45 196.433C132.427 188.366 143.779 181.23 146.121 174.873C152.652 157.161 128.962 143.103 116.009 155.973L116.012 155.976Z" fill="#E96115"/>
<path d="M157.837 56.1261C149.962 55.1124 141.743 59.1428 136.861 66.4158C134.65 69.7043 132.885 73.2828 131.624 77.2399C127.585 89.896 121.136 92.2379 114.278 99.0285C113.765 99.5384 113.258 100.067 112.782 100.638C108.975 105.202 108.938 112.152 112.058 117.379C114.983 122.277 118.083 126.066 115.234 132.859C114.577 134.423 112.764 135.934 110.706 136.978C103.509 140.63 103.543 146.471 106.828 150.169C110.016 153.756 124.061 151.598 127.884 154.211C130.504 156.004 131.017 160.11 132.751 163.017C134.897 166.62 139.236 168.196 142.757 166.654C146.277 165.112 148.653 160.593 148.228 156.236C147.556 159.826 150.61 163.344 153.764 163.399C156.918 163.454 159.748 160.849 161.324 157.665C162.899 154.48 163.455 150.77 163.983 147.146C164.347 144.664 164.71 142.178 165.073 139.696L162.322 131.29C158.967 121.037 145.911 134.047 149.153 100.686L150.234 78.6566" fill="#FFE17A"/>
<path d="M178.798 56.5809C186.673 55.5672 194.892 59.5976 199.775 66.8707C201.985 70.1591 203.75 73.7376 205.011 77.6947C209.051 90.3508 215.499 92.6927 222.357 99.4833C222.87 99.9932 223.377 100.521 223.853 101.092C227.661 105.657 227.697 112.607 224.577 117.834C221.652 122.731 218.553 126.521 221.401 133.314C222.058 134.878 223.871 136.389 225.929 137.433C233.126 141.085 233.093 146.926 229.807 150.624C226.619 154.211 212.574 152.053 208.751 154.666C206.132 156.459 205.619 160.565 203.884 163.472C201.738 167.075 197.399 168.65 193.879 167.109C190.358 165.567 187.983 161.048 188.407 156.691C189.079 160.281 186.025 163.799 182.871 163.854C179.717 163.909 176.887 161.304 175.311 158.12C173.736 154.935 173.18 151.225 172.652 147.601C172.288 145.118 171.925 142.633 171.562 140.151L174.313 131.745C177.668 121.492 190.724 134.502 187.482 101.141L186.401 79.1115" fill="#FFE17A"/>
<path d="M178.801 162.098C183.439 165.64 149.596 165.872 153.984 162.098C162.652 154.645 158.109 122.75 158.109 122.75H175.134C175.134 122.75 169.232 154.785 178.804 162.098H178.801Z" fill="#FFBB8D"/>
<path d="M197.836 99.294C197.836 121.931 180.374 147.424 166.414 147.424C152.454 147.424 134.992 121.928 134.992 99.294C134.992 76.6596 152.454 71.1025 166.414 71.1025C180.374 71.1025 197.836 76.6566 197.836 99.294Z" fill="#FFBB8D"/>
<path d="M204.849 84.4791C204.849 66.4248 190.211 51.7871 172.157 51.7871H164.215C146.161 51.7871 131.523 66.4248 131.523 84.4791V89.34L135.566 86.1493L131.825 97.5108C131.825 97.5108 148.466 95.6024 148.466 75.9603L151.492 89.34H181.442L183.863 75.9603C183.863 95.5994 200.504 97.5108 200.504 97.5108L194.883 80.4335L204.852 84.4791H204.849Z" fill="#FFE17A"/>
<path d="M79.473 216.512C86.4438 217.611 90.3918 213.287 92.8589 210.771C101.872 201.578 108.675 186.378 110.553 179.701C118.794 150.379 127.566 138.334 133.035 121.205C133.584 119.48 132.922 113.483 132.027 111.724C129.187 106.146 135.319 101.889 138.924 98.6254C142.515 95.3736 153.55 97.1415 156.402 94.5248C160.408 90.8486 155.251 86.8121 148.433 85.9846C137.364 84.6412 125.82 91.5356 121.746 101.914C118.672 109.749 121.27 116.9 119.118 125.037C111.444 154.071 81.3997 171.46 70.768 197.654C70.2733 198.872 69.8001 199.987 69.3574 201.031C66.2674 208.319 71.5557 216.411 79.47 216.512H79.473Z" fill="#FFC599"/>
<path d="M252.078 216.512C245.88 216.704 240.842 213.364 238.692 210.771C230.393 200.772 222.876 186.378 220.998 179.701C212.757 150.379 203.985 138.334 198.516 121.205C197.967 119.48 198.629 113.483 199.524 111.724C202.364 106.146 196.232 101.889 192.626 98.6254C189.036 95.3736 178.001 97.1415 175.149 94.5248C171.143 90.8486 176.3 86.8121 183.118 85.9846C194.187 84.6412 205.731 91.5356 209.805 101.914C212.879 109.749 210.281 116.9 212.433 125.037C220.106 154.071 250.151 171.46 260.783 197.654C261.278 198.872 261.751 199.987 262.194 201.031C265.284 208.319 259.995 216.411 252.081 216.512H252.078Z" fill="#FFC599"/>
<path d="M171.152 111.526H162.078V100.03C162.078 100.03 163.489 101.642 166.917 101.642C169.916 101.642 171.152 100.03 171.152 100.03V111.526Z" fill="#005B85"/>
<path d="M162.28 103.761H171.354V115.257C171.354 115.257 169.943 113.645 166.515 113.645C163.516 113.645 162.28 115.257 162.28 115.257V103.761Z" fill="#005B85"/>
<path d="M148.02 124.515C157.275 124.515 164.777 117.012 164.777 107.758C164.777 98.5034 157.275 91.0012 148.02 91.0012C138.766 91.0012 131.264 98.5034 131.264 107.758C131.264 117.012 138.766 124.515 148.02 124.515Z" fill="#0095CA"/>
<path d="M148.137 120.362C155.276 120.362 161.064 114.574 161.064 107.434C161.064 100.294 155.276 94.5063 148.137 94.5063C140.997 94.5063 135.209 100.294 135.209 107.434C135.209 114.574 140.997 120.362 148.137 120.362Z" fill="#A0EBFF"/>
<path d="M186.068 124.515C195.322 124.515 202.825 117.012 202.825 107.758C202.825 98.5034 195.322 91.0012 186.068 91.0012C176.814 91.0012 169.311 98.5034 169.311 107.758C169.311 117.012 176.814 124.515 186.068 124.515Z" fill="#0095CA"/>
<path d="M185.784 120.362C192.924 120.362 198.712 114.574 198.712 107.434C198.712 100.294 192.924 94.5063 185.784 94.5063C178.644 94.5063 172.856 100.294 172.856 107.434C172.856 114.574 178.644 120.362 185.784 120.362Z" fill="#6DDCFF"/>
<path d="M147.868 288.726C124.705 296.252 99.9457 298.832 75.7267 296.243C70.5635 295.69 65.2476 294.842 60.8905 292.02C56.5334 289.196 53.3824 283.905 54.5671 278.848C55.935 273.013 62.5546 269.676 68.5391 269.966C74.5237 270.256 79.9922 273.264 85.2164 276.198C78.1205 271.569 70.6826 266.553 67.0796 258.886C63.4767 251.219 65.6629 240.181 73.6199 237.274C80.7189 234.682 88.4102 239.552 93.3291 245.292C98.2481 251.032 102.04 258.031 108.477 261.991C102.633 257.127 100.883 247.988 104.523 241.311C108.162 234.633 116.788 231.149 124.046 233.424C129.896 235.259 134.329 240.257 136.912 245.817C139.496 251.377 140.485 257.524 141.447 263.579C137.838 257.234 144.57 248.663 151.871 248.858C159.168 249.054 165.079 255.536 167.04 262.568C169 269.6 167.895 277.08 166.743 284.289" fill="#FEC91B"/>
<path d="M112.235 284.152C112.235 284.152 112.214 284.152 112.205 284.152C102.449 283.358 95.9245 277.068 92.1689 271.932C88.1141 266.388 86.3279 260.95 86.3096 260.895C86.2454 260.693 86.3554 260.479 86.5538 260.415C86.7553 260.351 86.9691 260.461 87.0362 260.66C87.0546 260.711 88.8102 266.052 92.7979 271.499C96.4588 276.5 102.807 282.619 112.266 283.389C112.477 283.407 112.632 283.59 112.614 283.801C112.599 283.999 112.431 284.152 112.232 284.152H112.235Z" fill="#005B85"/>
<path d="M84.8682 286.625C82.334 286.625 79.9371 285.987 78.1326 285.324C75.2197 284.256 73.232 282.934 73.1465 282.876C72.9724 282.76 72.9236 282.521 73.0427 282.347C73.1587 282.173 73.3969 282.124 73.5709 282.244C73.6503 282.295 81.5126 287.486 88.4712 285.346C92.0771 284.237 94.8496 281.352 96.7029 276.769C96.7823 276.574 97.0052 276.479 97.2006 276.558C97.396 276.638 97.4907 276.861 97.4113 277.056C95.4663 281.865 92.5321 284.9 88.691 286.079C87.4178 286.469 86.1262 286.625 84.8652 286.625H84.8682Z" fill="#005B85"/>
<path d="M270.099 65.2523C269.091 64.2447 267.461 64.2447 266.456 65.2523L262.142 69.5666L257.828 65.2523C256.823 64.2447 255.189 64.2447 254.185 65.2523C253.177 66.2568 253.177 67.8904 254.185 68.8949L258.499 73.2093L254.185 77.5236C253.177 78.5282 253.177 80.1617 254.185 81.1663C255.192 82.1739 256.823 82.1739 257.828 81.1663L262.142 76.8519L266.456 81.1663C267.464 82.1739 269.094 82.1739 270.099 81.1663C271.103 80.1587 271.103 78.5282 270.099 77.5236L265.785 73.2093L270.099 68.8949C271.103 67.8873 271.103 66.2568 270.099 65.2523Z" fill="#FF5662"/>
<path d="M294.214 47.7964L296.373 45.6377C296.877 45.1339 296.877 44.3187 296.373 43.8149C295.869 43.3111 295.054 43.3111 294.55 43.8149L292.391 45.9736L290.236 43.8149C289.732 43.3111 288.917 43.3111 288.413 43.8149C287.909 44.3187 287.909 45.1339 288.413 45.6377L290.568 47.7964L288.413 49.9551C287.909 50.4589 287.909 51.2742 288.413 51.778C288.917 52.2818 289.732 52.2818 290.236 51.778L292.391 49.6192L294.55 51.778C295.054 52.2818 295.869 52.2818 296.373 51.778C296.877 51.2742 296.877 50.4589 296.373 49.9551L294.214 47.7964Z" fill="#FF5662"/>
<path d="M231.556 211.901L226.793 220.807C224.68 224.758 220.561 227.226 216.082 227.226H149.629C145.147 227.226 141.031 229.693 138.918 233.644L104.81 297.413H248.56C256.142 297.413 263.11 293.239 266.685 286.552L300.485 223.36C304.815 215.269 298.95 205.483 289.774 205.483H242.271C237.788 205.483 233.672 207.95 231.56 211.901H231.556Z" fill="#00C7FD"/>
<path d="M321.752 130.957C323.396 130.957 324.729 129.624 324.729 127.98C324.729 126.336 323.396 125.003 321.752 125.003C320.108 125.003 318.775 126.336 318.775 127.98C318.775 129.624 320.108 130.957 321.752 130.957Z" fill="#0095CA"/>
<path d="M278.468 171.264C280.112 171.264 281.445 169.931 281.445 168.287C281.445 166.643 280.112 165.31 278.468 165.31C276.824 165.31 275.491 166.643 275.491 168.287C275.491 169.931 276.824 171.264 278.468 171.264Z" fill="#0095CA"/>
<path d="M319.459 220.893C320.656 220.893 321.627 219.922 321.627 218.725C321.627 217.528 320.656 216.557 319.459 216.557C318.262 216.557 317.291 217.528 317.291 218.725C317.291 219.922 318.262 220.893 319.459 220.893Z" fill="#0095CA"/>
<path d="M265.852 143.03C263.192 139.998 260.685 136.706 259.467 132.862C258.249 129.018 258.511 124.508 261.018 121.351C263.751 117.904 268.67 116.732 272.981 117.602C277.292 118.469 281.066 121.073 284.3 124.057C294.522 133.491 301.148 148.77 299.908 162.944C299.689 165.457 296.794 166.791 294.733 165.338C284.834 158.352 274.242 152.593 265.855 143.033L265.852 143.03Z" fill="#A0EBFF"/>
<path d="M329.904 164.361C334.759 160.916 339.73 157.161 342.316 151.799C344.902 146.437 344.234 139.024 339.278 135.723C334.28 132.395 327.059 134.746 323.297 139.427C319.535 144.108 318.488 150.385 318.134 156.379C317.334 169.915 319.025 172.073 329.901 164.361H329.904Z" fill="#A0EBFF"/>
<path d="M288.8 182.326C287.063 180.592 285.188 178.83 282.828 178.152C280.468 177.475 277.497 178.262 276.502 180.507C275.494 182.772 276.953 185.545 279.121 186.748C281.286 187.951 283.912 187.941 286.376 187.667C291.936 187.05 292.696 186.213 288.803 182.323L288.8 182.326Z" fill="#A0EBFF"/>
<path d="M316.857 111.492C318.518 108.225 319.401 104.161 317.593 100.976C315.538 97.3522 310.442 96.2255 306.61 97.856C302.779 99.4865 300.195 103.276 299.029 107.276C297.322 113.129 298.898 126.124 305.658 128.957C310.497 130.985 309.664 127.403 310.806 123.852C312.277 119.272 314.69 115.764 316.861 111.495L316.857 111.492Z" fill="#A0EBFF"/>
<path d="M313.145 202.225C314.925 204.066 317.407 205.574 319.923 205.104C322.784 204.57 324.689 201.462 324.485 198.561C324.28 195.657 322.366 193.089 319.99 191.41C316.513 188.952 307.572 187.032 304.162 190.851C301.722 193.587 304.275 193.85 306.363 195.413C309.053 197.425 310.821 199.819 313.148 202.225H313.145Z" fill="#A0EBFF"/>
<path d="M174.881 298.145C174.707 298.145 174.551 298.026 174.508 297.849C174.459 297.645 174.588 297.44 174.795 297.391C214.879 288.164 251.519 263.627 275.317 230.077C299.115 196.524 310.156 153.836 305.609 112.955C305.585 112.744 305.737 112.558 305.945 112.533C306.159 112.509 306.342 112.661 306.366 112.869C310.931 153.936 299.841 196.817 275.937 230.52C252.032 264.223 215.23 288.869 174.966 298.136C174.939 298.142 174.908 298.145 174.881 298.145Z" fill="#005B85"/>
<path d="M300.666 166.422C300.47 166.422 300.275 166.406 300.076 166.37C296.104 165.692 292.492 158.171 288.999 150.895C285.775 144.184 282.443 137.247 279.375 137.085C279.164 137.073 279.002 136.896 279.015 136.685C279.027 136.474 279.204 136.313 279.415 136.325C282.935 136.511 286.214 143.338 289.686 150.566C293.097 157.665 296.623 165.005 300.205 165.615C301.237 165.79 302.232 165.386 303.246 164.373C303.395 164.223 303.637 164.223 303.786 164.373C303.936 164.522 303.936 164.764 303.786 164.913C302.785 165.915 301.741 166.419 300.669 166.419L300.666 166.422Z" fill="#005B85"/>
<path d="M305.569 176.155C304.266 176.155 302.913 176.039 301.515 175.807C301.307 175.774 301.166 175.575 301.2 175.368C301.234 175.16 301.432 175.02 301.64 175.053C307.301 175.997 312.161 174.965 316.091 171.985C324.317 165.744 325.792 152.929 325.804 152.801C325.825 152.59 326.014 152.44 326.225 152.462C326.436 152.483 326.585 152.672 326.564 152.883C326.549 153.014 325.047 166.147 316.555 172.592C313.429 174.965 309.746 176.159 305.569 176.159V176.155Z" fill="#005B85"/>
<path d="M317.129 199.517C317.031 199.517 316.931 199.48 316.857 199.404C316.741 199.285 305.157 187.691 295.75 193.511C295.573 193.621 295.334 193.566 295.225 193.386C295.115 193.205 295.17 192.97 295.35 192.86C299.472 190.311 304.601 190.549 310.189 193.553C314.363 195.798 317.279 198.741 317.401 198.866C317.547 199.016 317.547 199.257 317.395 199.407C317.321 199.48 317.224 199.517 317.126 199.517H317.129Z" fill="#005B85"/>
<path d="M295.548 193.566C295.365 193.566 295.206 193.434 295.173 193.251C293.897 185.963 287.063 183.725 281.1 184.061C280.895 184.073 280.709 183.911 280.697 183.7C280.685 183.49 280.847 183.309 281.057 183.297C287.35 182.943 294.565 185.337 295.927 193.117C295.964 193.324 295.823 193.523 295.616 193.559C295.594 193.563 295.57 193.566 295.548 193.566Z" fill="#005B85"/>
</svg>
