<svg width="72" height="18" viewBox="0 0 72 18" xmlns="http://www.w3.org/2000/svg">
<path d="M17.5154 8.34231C17.4808 8.34231 17.4462 8.34231 17.4115 8.34231L14.3308 2.73462C14.4 2.63077 14.4 2.52692 14.4 2.38846C14.4 1.97308 14.0538 1.66154 13.6731 1.66154C13.4654 1.66154 13.2577 1.76538 13.1538 1.90385L7.06154 0.657692C7.02692 0.276923 6.71538 0 6.33462 0C5.91923 0 5.60769 0.346154 5.60769 0.726923C5.60769 0.865385 5.64231 0.969231 5.67692 1.07308L0.934615 7.89231C0.865385 7.89231 0.796154 7.85769 0.726923 7.85769C0.311538 7.85769 0 8.20385 0 8.58462C0 9 0.346154 9.31154 0.726923 9.31154H0.761539L3.32308 15.6462C3.28846 15.75 3.25385 15.8538 3.25385 15.9577C3.25385 16.3731 3.6 16.6846 3.98077 16.6846C4.18846 16.6846 4.39615 16.5808 4.5 16.4423L12.1846 17.2038C12.2538 17.5154 12.5654 17.7577 12.9115 17.7577C13.3269 17.7577 13.6385 17.4115 13.6385 17.0308C13.6385 16.8577 13.5692 16.6846 13.4654 16.5462L17.3423 9.79615C17.3769 9.79615 17.4115 9.79615 17.4808 9.79615C17.8962 9.79615 18.2077 9.45 18.2077 9.06923C18.2423 8.68846 17.9308 8.34231 17.5154 8.34231ZM13.0846 2.83846C13.1885 2.94231 13.2923 3.04615 13.4308 3.08077L12.2538 11.8731C12.1846 11.8731 12.1154 11.9077 12.0462 11.9423L5.64231 6.40385C5.64231 6.33462 5.67692 6.26538 5.67692 6.19615C5.67692 6.16154 5.67692 6.09231 5.67692 6.05769L13.0846 2.83846ZM16.7885 9.31154L12.8423 12.0115C12.8077 11.9769 12.7731 11.9769 12.7385 11.9423L13.95 3.08077L16.9615 8.61923C16.8577 8.75769 16.7885 8.93077 16.7885 9.10385C16.7538 9.17308 16.7885 9.24231 16.7885 9.31154ZM4.84615 5.46923C4.5 5.53846 4.22308 5.81538 4.22308 6.19615V6.23077L1.59231 7.78846L5.67692 1.93846L4.84615 5.46923ZM5.12308 6.92308C5.22692 6.88846 5.33077 6.85385 5.4 6.81923L11.7346 12.3231C11.7 12.3923 11.7 12.4962 11.7 12.6V12.6346L4.60385 15.5423C4.5 15.4038 4.32692 15.2654 4.15385 15.2308L5.12308 6.92308ZM11.8731 13.0846C11.9769 13.1885 12.1154 13.2577 12.2538 13.2923L12.6 16.3731C12.4615 16.4423 12.3231 16.5808 12.2538 16.7192L4.81154 15.9923L11.8731 13.0846ZM12.7731 13.2577C13.0154 13.1538 13.1885 12.8769 13.1885 12.6C13.1885 12.5308 13.1885 12.4615 13.1538 12.4269L16.7538 9.96923L13.1192 16.2692L12.7731 13.2577ZM12.9462 2.35385L5.43462 5.64231C5.4 5.60769 5.36538 5.60769 5.36538 5.57308L6.33462 1.48846H6.36923C6.64615 1.48846 6.85385 1.35 6.99231 1.14231L12.9462 2.35385ZM1.48846 8.58462C1.48846 8.55 1.48846 8.48077 1.48846 8.44615L4.46538 6.68077C4.53462 6.75 4.60385 6.78462 4.67308 6.81923L3.70385 15.1269L1.28077 9.13846C1.38462 9 1.48846 8.82692 1.48846 8.58462Z"/>
<path d="M26.5846 11.8038V6.50769C26.5846 3.94615 28.5231 2.97692 31.05 2.97692C33.5423 2.97692 35.5154 3.94615 35.5154 6.50769V11.8038C35.5154 14.3654 33.5423 15.3346 31.05 15.3346C28.5231 15.3346 26.5846 14.3654 26.5846 11.8038ZM34.4077 6.50769C34.4077 4.63846 33.1615 3.80769 31.05 3.80769C28.9385 3.80769 27.6923 4.67308 27.6923 6.50769V11.8038C27.6923 13.6731 28.9385 14.5038 31.05 14.5038C33.1615 14.5038 34.4077 13.6385 34.4077 11.8038V6.50769Z"/>
<path d="M46.4885 14.6077L39.9808 4.98462V14.85C39.9808 15.0923 39.7038 15.2308 39.4269 15.2308C39.15 15.2308 38.8731 15.1269 38.8731 14.85V3.35769C38.8731 3.08077 39.15 3.01154 39.4269 3.01154C39.8423 3.01154 40.1192 3.42692 40.3269 3.70385L46.7308 13.2577V3.35769C46.7308 3.11538 47.0077 3.01154 47.2846 3.01154C47.5615 3.01154 47.8385 3.11538 47.8385 3.35769V14.85C47.8385 15.0923 47.5615 15.2308 47.2846 15.2308C46.9385 15.2308 46.6962 14.8846 46.4885 14.6077Z"/>
<path d="M58.95 14.6077L52.4423 4.98462V14.85C52.4423 15.0923 52.1654 15.2308 51.8885 15.2308C51.6115 15.2308 51.3346 15.1269 51.3346 14.85V3.35769C51.3346 3.08077 51.6115 3.01154 51.8885 3.01154C52.3039 3.01154 52.5808 3.42692 52.7885 3.70385L59.1923 13.2577V3.35769C59.1923 3.11538 59.4692 3.01154 59.7462 3.01154C60.0231 3.01154 60.3 3.11538 60.3 3.35769V14.85C60.3 15.0923 60.0231 15.2308 59.7462 15.2308C59.4346 15.2308 59.1577 14.8846 58.95 14.6077Z"/>
<path d="M67.1885 9.9L63.9 14.6769C63.7615 14.9192 63.5538 15.2308 63.2423 15.2308C62.9654 15.2308 62.6192 15.0577 62.6192 14.8154C62.6192 14.7462 62.6538 14.6769 62.7231 14.6077L66.5308 9.10385L62.7923 3.63462C62.6885 3.53077 62.6538 3.42692 62.6538 3.32308C62.6538 3.11538 62.9308 2.97692 63.2769 2.97692C63.5885 2.97692 63.7962 3.28846 63.9692 3.56538L67.1885 8.30769L70.4077 3.56538C70.5808 3.32308 70.7885 2.97692 71.1 2.97692C71.4462 2.97692 71.7231 3.11538 71.7231 3.32308C71.7231 3.42692 71.6885 3.53077 71.5846 3.63462L67.8115 9.10385L71.6538 14.6077C71.6885 14.6769 71.7577 14.7462 71.7577 14.8154C71.7577 15.0577 71.4462 15.2308 71.1346 15.2308C70.7885 15.2308 70.6154 14.8846 70.4769 14.6769L67.1885 9.9Z"/>
</svg>
