<svg width="76" height="15" viewBox="0 0 76 15" xmlns="http://www.w3.org/2000/svg">
<path d="M6.10383 0.0324243C7.84636 0.0324243 9.30195 0.61684 10.4708 1.78567C11.6396 2.9545 12.224 4.40463 12.224 6.13626C12.224 7.86788 11.6396 9.31801 10.4708 10.4868C9.30195 11.6557 7.84636 12.2401 6.10383 12.2401C4.36149 12.2401 2.90864 11.6584 1.74507 10.495C0.581688 9.33165 0 7.87879 0 6.13626C0 4.40463 0.578961 2.9545 1.73708 1.78567C2.895 0.61684 4.35058 0.0324243 6.10383 0.0324243ZM1.86682 6.13626C1.86682 7.34833 2.27805 8.37652 3.10071 9.22061C3.92318 10.0649 4.92429 10.4868 6.10383 10.4868C7.29429 10.4868 8.30084 10.0703 9.12331 9.23697C9.94597 8.40359 10.3572 7.36996 10.3572 6.13626C10.3572 4.92418 9.94597 3.896 9.12331 3.0519C8.30084 2.20762 7.29429 1.78567 6.10383 1.78567C4.91338 1.78567 3.90955 2.20509 3.09253 3.04372C2.27552 3.88256 1.86682 4.91327 1.86682 6.13626Z"/>
<path d="M13.1402 4.05838H14.9421V5.37331C15.5049 4.35604 16.4031 3.8474 17.637 3.8474C18.7301 3.8474 19.6229 4.23156 20.3156 4.99987C21.0081 5.76838 21.3545 6.76403 21.3545 7.98701C21.3545 9.21 21.0027 10.2164 20.2992 11.0065C19.5958 11.7964 18.6921 12.1915 17.5883 12.1915C16.6792 12.1915 16.065 12.0292 15.7457 11.7045C15.4264 11.3797 15.229 11.1633 15.1533 11.0552C15.0775 10.9469 15.0072 10.8333 14.9421 10.7143V14.9836L13.1402 15V4.05838ZM14.8934 8.00318C14.8934 8.7824 15.1126 9.41825 15.5509 9.91072C15.9892 10.4032 16.5602 10.6492 17.2636 10.6492C17.9345 10.6492 18.4866 10.4057 18.9194 9.9187C19.3523 9.43169 19.5687 8.80403 19.5687 8.03571C19.5687 7.26721 19.3523 6.63955 18.9194 6.15253C18.4866 5.66552 17.9345 5.42201 17.2636 5.42201C16.5492 5.42201 15.9757 5.66007 15.5429 6.13636C15.1098 6.61247 14.8934 7.23487 14.8934 8.00318Z"/>
<path d="M24.3928 8.66883C24.501 9.31812 24.7581 9.83221 25.1639 10.2109C25.5697 10.5898 26.0758 10.7792 26.6818 10.7792C27.1254 10.7792 27.5502 10.6519 27.956 10.3977C28.362 10.1433 28.7056 9.78896 28.9869 9.33429L30.4154 10.2273C29.9393 10.9091 29.4036 11.4095 28.8083 11.7288C28.2132 12.0481 27.5043 12.2077 26.6818 12.2077C25.4588 12.2077 24.4632 11.829 23.6947 11.0714C22.9263 10.3138 22.5422 9.31812 22.5422 8.08442C22.5422 6.85052 22.9291 5.83597 23.7028 5.04058C24.4766 4.245 25.4588 3.8474 26.6493 3.8474C27.829 3.8474 28.7894 4.23974 29.5308 5.02422C30.2721 5.8089 30.6428 6.82364 30.6428 8.06805L30.6102 8.66883H24.3928ZM24.3928 7.3539H28.7434C28.7434 6.71533 28.5459 6.20396 28.1508 5.81981C27.756 5.43565 27.2498 5.24338 26.6331 5.24338C26.0487 5.24338 25.5589 5.42747 25.1639 5.79545C24.7688 6.16344 24.5119 6.68279 24.3928 7.3539Z"/>
<path d="M31.9556 4.0908H33.7576V5.30833C34.3529 4.33431 35.197 3.8473 36.29 3.8473C36.6906 3.8473 37.0693 3.92307 37.4265 4.07463C37.7836 4.22619 38.084 4.43716 38.3275 4.70775C38.571 4.97833 38.736 5.27327 38.8225 5.59236C38.9092 5.91165 38.9524 6.37431 38.9524 6.98035V11.9804H37.1505V7.43502C37.1505 7.08866 37.1289 6.77756 37.0856 6.50152C37.0422 6.22548 36.8772 5.97671 36.5904 5.75483C36.3037 5.53294 35.9708 5.42191 35.5921 5.42191C35.0186 5.42191 34.5693 5.62216 34.2446 6.02268C33.92 6.42301 33.7576 6.97509 33.7576 7.67853V11.9804H31.9556V4.0908Z"/>
<path d="M40.9654 0.275931L43.6765 8.08431C43.8279 8.56061 43.9362 9.15028 44.0011 9.85372C44.0661 9.08541 44.1797 8.49554 44.342 8.08431L47.0369 0.275931H49.066L44.7641 11.9804H43.2544L38.9525 0.275931H40.9654Z"/>
<path d="M49.7029 0.275932H51.586V11.9804H49.7029V0.275932Z"/>
<path d="M53.0829 0.275931H54.6844L60.587 8.13301C60.831 8.45775 61.0852 8.96638 61.3495 9.65892C61.2783 9.28022 61.2174 8.91496 61.1665 8.56314C61.1158 8.21151 61.0904 7.97619 61.0904 7.85697V0.275931H62.8595V11.9804H61.3038L55.325 4.05827C55.0707 3.73372 54.8216 3.25216 54.5775 2.61359L54.6538 2.98684L54.7147 3.39281C54.8063 3.93398 54.852 4.24236 54.852 4.31814V11.9804H53.0829V0.275931Z"/>
<path d="M69.8781 0C71.6204 0 73.0762 0.584415 74.245 1.75325C75.4139 2.92208 75.9983 4.37221 75.9983 6.10383C75.9983 7.83546 75.4139 9.28558 74.245 10.4544C73.0762 11.6232 71.6204 12.2077 69.8781 12.2077C68.1357 12.2077 66.6827 11.626 65.5193 10.4626C64.3559 9.29922 63.7743 7.84636 63.7743 6.10383C63.7743 4.37221 64.3532 2.92208 65.5111 1.75325C66.6693 0.584415 68.1248 0 69.8781 0ZM65.6411 6.10383C65.6411 7.31591 66.0523 8.34409 66.8748 9.18818C67.6974 10.0325 68.6983 10.4544 69.8781 10.4544C71.0685 10.4544 72.0751 10.0379 72.8976 9.20455C73.72 8.37117 74.1313 7.33753 74.1313 6.10383C74.1313 4.89175 73.72 3.86357 72.8976 3.01948C72.0751 2.17519 71.0685 1.75325 69.8781 1.75325C68.6876 1.75325 67.6838 2.17266 66.8668 3.0113C66.0496 3.85013 65.6411 4.88085 65.6411 6.10383Z"/>
<path fill-rule="evenodd" clip-rule="evenodd" d="M72.3651 5.30329C72.4696 5.58465 72.5266 5.88902 72.5266 6.20646C72.5266 7.64149 71.3615 8.80632 69.9267 8.80632C68.4918 8.80632 67.3268 7.64149 67.3268 6.20646C67.3268 4.7716 68.4918 3.60659 69.9267 3.60659C70.2441 3.60659 70.5485 3.6636 70.8299 3.76802C70.5067 3.96413 70.2905 4.3194 70.2905 4.72471C70.2905 5.34181 70.7915 5.84264 71.4086 5.84264C71.8139 5.84264 72.169 5.62666 72.3651 5.30329Z"/>
<path fill-rule="evenodd" clip-rule="evenodd" d="M8.37587 5.30329C8.48029 5.58465 8.5373 5.88902 8.5373 6.20646C8.5373 7.64149 7.37229 8.80632 5.93743 8.80632C4.50257 8.80632 3.33756 7.64149 3.33756 6.20646C3.33756 4.7716 4.50257 3.60659 5.93743 3.60659C6.25487 3.60659 6.55924 3.6636 6.8406 3.76802C6.5174 3.96413 6.30124 4.3194 6.30124 4.72471C6.30124 5.34181 6.80225 5.84264 7.41936 5.84264C7.82466 5.84264 8.17976 5.62666 8.37587 5.30329Z"/>
</svg>
