<svg width="16" height="16" viewBox="0 0 16 16" fill="none" xmlns="http://www.w3.org/2000/svg">
<path d="M2.75 11C2.88812 11 3 11.1119 3 11.25V13.9873H14V11.25C14 11.1119 14.1119 11 14.25 11H14.75C14.8881 11 15 11.1119 15 11.25V14.75C15 14.8881 14.8881 15 14.75 15H2.25C2.11188 15 2 14.8881 2 14.75V11.25C2 11.1119 2.11187 11 2.25 11H2.75Z" fill="white"/>
<path d="M6.74902 3C6.88709 3 6.99902 3.11193 6.99902 3.25V8H8.74902C8.97173 8.00001 9.08325 8.26927 8.92578 8.42676L6.67676 10.917C6.62794 10.9658 6.563 11 6.49902 11C6.4352 10.9998 6.37096 10.9657 6.32227 10.917L4.07324 8.42676C3.91613 8.26923 4.02837 8 4.25098 8H5.99902V3.25C5.99903 3.1121 6.11118 3.00026 6.24902 3H6.74902Z" fill="white"/>
<path d="M11.499 3C11.563 3 11.6279 3.03419 11.6768 3.08301L13.9258 5.57324C14.0833 5.73073 13.9717 5.99999 13.749 6H11.999V10.75C11.999 10.8881 11.8871 11 11.749 11H11.249C11.1112 10.9997 10.999 10.8879 10.999 10.75V6H9.25098C9.02837 6 8.91612 5.73077 9.07324 5.57324L11.3223 3.08301C11.371 3.03432 11.4352 3.00017 11.499 3Z" fill="white"/>
</svg>
