<svg width="73" height="18" viewBox="0 0 73 18" xmlns="http://www.w3.org/2000/svg">
<path d="M9.29752 4.07601L8.3157 5.05783C9.92231 6.66444 9.92231 9.25287 8.3157 10.8297C6.70909 12.4363 4.12066 12.4363 2.5438 10.8297C0.93719 9.22311 0.93719 6.63469 2.5438 5.05783L5.44463 2.157V0.237991L1.60661 4.07601C-0.535537 6.21816 -0.535537 9.6694 1.60661 11.8115C3.74876 13.9537 7.2 13.9537 9.29752 11.8115C11.4397 9.65452 11.4397 6.21816 9.29752 4.07601Z" />
<path d="M8.09256 3.12394C8.09256 3.51831 7.77288 3.83799 7.37851 3.83799C6.98415 3.83799 6.66446 3.51831 6.66446 3.12394C6.66446 2.72958 6.98415 2.40989 7.37851 2.40989C7.77288 2.40989 8.09256 2.72958 8.09256 3.12394Z" />
<path d="M19.2198 8.98512H17.5685V13.2248H16.319V1.16033H19.3537C22.5223 1.16033 24.0396 2.72231 24.0396 4.90909C24.0842 7.60165 22.2099 8.98512 19.2198 8.98512ZM19.3537 2.36529C19.2198 2.36529 17.6132 2.36529 17.6132 2.36529V7.91405L19.309 7.86942C21.5851 7.82479 22.8347 6.93223 22.8347 5.05785C22.8347 3.30248 21.5851 2.36529 19.3537 2.36529Z" />
<path d="M29.633 13.1802L28.919 15.0992C28.1156 17.2413 27.2677 17.8661 26.0628 17.8661C25.3933 17.8661 24.9024 17.6876 24.3669 17.4645L24.7239 16.3488C25.1256 16.5719 25.5718 16.7504 26.0628 16.7504C26.7322 16.7504 27.2231 16.3934 27.8925 14.6975L28.4727 13.1355L25.0363 4.41818H26.3305L29.0975 11.7074L31.8198 4.41818H33.0694L29.633 13.1802Z" />
<path d="M37.1454 2.36529V13.2694H35.8958V2.36529H31.6561V1.20496H41.3553V2.36529C41.3404 2.36529 37.1454 2.36529 37.1454 2.36529Z" />
<path d="M44.8809 13.4926C42.4264 13.4926 40.6413 11.6628 40.6413 8.85124C40.6413 6.03967 42.5157 4.16529 45.0148 4.16529C47.514 4.16529 49.2545 5.99504 49.2545 8.80661C49.2099 11.6182 47.3355 13.4926 44.8809 13.4926ZM44.9256 5.28099C43.0512 5.28099 41.8462 6.75372 41.8462 8.85124C41.8462 10.9934 43.0958 12.4661 44.9702 12.4661C46.8446 12.4661 48.0495 10.9934 48.0495 8.89587C48.0495 6.70909 46.7999 5.28099 44.9256 5.28099Z" />
<path d="M52.2446 13.2694H51.0396V4.41818L52.2446 4.15041V6.02479C52.8247 4.90909 53.6727 4.15041 54.833 4.15041C55.4132 4.15041 55.9487 4.32893 56.395 4.55207L56.0826 5.66777C55.6809 5.44463 55.2347 5.26612 54.7437 5.26612C53.8066 5.26612 52.9586 5.98017 52.2446 7.54215V13.2694Z" />
<path d="M61.0958 13.4926C58.4181 13.4926 56.7669 11.5736 56.7669 8.85124C56.7669 6.0843 58.5966 4.16529 61.0958 4.16529C62.1669 4.16529 63.1041 4.43306 63.8628 4.92397L63.5504 5.99504C62.8809 5.54876 62.033 5.28099 61.0958 5.28099C59.1768 5.28099 58.0165 6.70909 58.0165 8.80661C58.0165 10.9488 59.2661 12.3769 61.1404 12.3769C62.033 12.3769 62.9256 12.1091 63.595 11.6628L63.8628 12.7785C63.0594 13.2248 62.1223 13.4926 61.0958 13.4926Z" />
<path d="M71.2413 7.54215C71.2413 5.98017 70.6165 5.31074 69.3669 5.31074C68.3404 5.31074 67.3586 5.84628 66.6446 6.56033V13.2694H65.4396V0.267769L66.6446 0V5.59339C67.5818 4.6562 68.7421 4.20992 69.7239 4.20992C71.4198 4.20992 72.4909 5.32562 72.4909 7.24463V13.2843H71.2413V7.54215Z" />
</svg>
