<svg width="32" height="32" viewBox="0 0 32 32" fill="none" xmlns="http://www.w3.org/2000/svg">
<g clip-path="url(#clip0_2889_15451)">
<path d="M9.5 6H6.5C6.22386 6 6 6.22386 6 6.5V9.5C6 9.77614 6.22386 10 6.5 10H9.5C9.77614 10 10 9.77614 10 9.5V6.5C10 6.22386 9.77614 6 9.5 6Z" fill="white"/>
<path d="M17.5 6H14.5C14.2239 6 14 6.22386 14 6.5V9.5C14 9.77614 14.2239 10 14.5 10H17.5C17.7761 10 18 9.77614 18 9.5V6.5C18 6.22386 17.7761 6 17.5 6Z" fill="white"/>
<path d="M25.5 6H22.5C22.2239 6 22 6.22386 22 6.5V9.5C22 9.77614 22.2239 10 22.5 10H25.5C25.7761 10 26 9.77614 26 9.5V6.5C26 6.22386 25.7761 6 25.5 6Z" fill="white"/>
<path d="M9.5 14H6.5C6.22386 14 6 14.2239 6 14.5V17.5C6 17.7761 6.22386 18 6.5 18H9.5C9.77614 18 10 17.7761 10 17.5V14.5C10 14.2239 9.77614 14 9.5 14Z" fill="white"/>
<path d="M17.5 14H14.5C14.2239 14 14 14.2239 14 14.5V17.5C14 17.7761 14.2239 18 14.5 18H17.5C17.7761 18 18 17.7761 18 17.5V14.5C18 14.2239 17.7761 14 17.5 14Z" fill="white"/>
<path d="M25.5 14H22.5C22.2239 14 22 14.2239 22 14.5V17.5C22 17.7761 22.2239 18 22.5 18H25.5C25.7761 18 26 17.7761 26 17.5V14.5C26 14.2239 25.7761 14 25.5 14Z" fill="white"/>
<path d="M9.5 22H6.5C6.22386 22 6 22.2239 6 22.5V25.5C6 25.7761 6.22386 26 6.5 26H9.5C9.77614 26 10 25.7761 10 25.5V22.5C10 22.2239 9.77614 22 9.5 22Z" fill="white"/>
<path d="M17.5 22H14.5C14.2239 22 14 22.2239 14 22.5V25.5C14 25.7761 14.2239 26 14.5 26H17.5C17.7761 26 18 25.7761 18 25.5V22.5C18 22.2239 17.7761 22 17.5 22Z" fill="white"/>
<path d="M25.5 22H22.5C22.2239 22 22 22.2239 22 22.5V25.5C22 25.7761 22.2239 26 22.5 26H25.5C25.7761 26 26 25.7761 26 25.5V22.5C26 22.2239 25.7761 22 25.5 22Z" fill="white"/>
</g>
<defs>
<clipPath id="clip0_2889_15451">
<rect width="32" height="32" fill="white"/>
</clipPath>
</defs>
</svg>
