<svg width="16" height="17" viewBox="0 0 16 17" fill="none" xmlns="http://www.w3.org/2000/svg">
<path d="M13.25 15.1033C13.1119 15.1033 13 14.9913 13 14.8533V5.35327C13 5.2152 13.1119 5.10327 13.25 5.10327H13.75C13.8881 5.10327 14 5.2152 14 5.35327V14.8533C14 14.9913 13.8881 15.1033 13.75 15.1033H13.25Z" fill="white"/>
<path d="M10.25 15.1033C10.1119 15.1033 10 14.9913 10 14.8533V8.35327C10 8.2152 10.1119 8.10327 10.25 8.10327H10.75C10.8881 8.10327 11 8.2152 11 8.35327V14.8533C11 14.9913 10.8881 15.1033 10.75 15.1033H10.25Z" fill="white"/>
<path d="M1 14.8533C1 14.9913 1.11193 15.1033 1.25 15.1033H1.75C1.88807 15.1033 2 14.9913 2 14.8533V11.3533C2 11.2152 1.88807 11.1033 1.75 11.1033H1.25C1.11193 11.1033 1 11.2152 1 11.3533V14.8533Z" fill="white"/>
<path d="M7 14.8533C7 14.9913 7.11193 15.1033 7.25 15.1033H7.75C7.88807 15.1033 8 14.9913 8 14.8533V11.3533C8 11.2152 7.88807 11.1033 7.75 11.1033H7.25C7.11193 11.1033 7 11.2152 7 11.3533V14.8533Z" fill="white"/>
<path d="M4 14.8533C4 14.9913 4.11193 15.1033 4.25 15.1033H4.75C4.88807 15.1033 5 14.9913 5 14.8533V8.35327C5 8.2152 4.88807 8.10327 4.75 8.10327H4.25C4.11193 8.10327 4 8.2152 4 8.35327V14.8533Z" fill="white"/>
</svg>
