<svg width="20" height="20" viewBox="0 0 20 20" fill="none" xmlns="http://www.w3.org/2000/svg">
<rect x="5" y="5" width="10" height="10" fill="#2B2C30"/>
<path fill-rule="evenodd" clip-rule="evenodd" d="M10 18.75C14.8325 18.75 18.75 14.8325 18.75 10C18.75 5.16751 14.8325 1.25 10 1.25C5.16751 1.25 1.25 5.16751 1.25 10C1.25 14.8325 5.16751 18.75 10 18.75ZM8.97529 13.0804C8.91515 13.1406 8.83659 13.1711 8.75777 13.172C8.67312 13.1758 8.58721 13.1454 8.52257 13.0808L5.09245 9.65064C4.97042 9.5286 4.97042 9.33073 5.09245 9.20869L5.5344 8.76675C5.65644 8.64471 5.8543 8.64471 5.97634 8.76675L8.74878 11.5392L14.0237 6.26431C14.1457 6.14227 14.3436 6.14227 14.4656 6.26431L14.9075 6.70625C15.0296 6.82829 15.0296 7.02615 14.9075 7.14819L8.97529 13.0804Z" fill="currentColor"/>
</svg>
