<svg width="32" height="32" viewBox="0 0 32 32" fill="none" xmlns="http://www.w3.org/2000/svg">
<path d="M15.5282 5.50073H15.5013L15.2326 5.55323C14.6414 5.62322 14.0636 5.78509 13.4993 6.03882C12.935 6.29255 12.4379 6.6294 12.0079 7.04937C11.2734 7.69682 10.7628 8.49302 10.4762 9.43795C10.315 9.96291 10.2433 10.5141 10.2612 11.0916C10.2791 11.669 10.3866 12.2202 10.5837 12.7452C10.8882 13.5327 11.354 14.2151 11.981 14.7926L12.3304 15.1075L10.1 18.651C9.6342 18.6335 9.23111 18.6948 8.89073 18.8348C8.35329 19.0623 7.95021 19.4122 7.68149 19.8847C7.55608 20.1472 7.47547 20.4184 7.43964 20.6984C7.40381 20.9784 7.42172 21.2584 7.49338 21.5383C7.6367 22.0633 7.93229 22.4833 8.38016 22.7982C8.64888 22.9732 8.94448 23.1001 9.26694 23.1788C9.58941 23.2576 9.91188 23.2751 10.2343 23.2313C10.5568 23.1876 10.8658 23.0782 11.1614 22.9032C11.457 22.7282 11.7034 22.5095 11.9004 22.247C12.1154 21.9496 12.2453 21.6083 12.2901 21.2234C12.3349 20.8384 12.2856 20.4797 12.1423 20.1472C12.1244 20.0597 12.0616 19.9372 11.9542 19.7797L11.8735 19.6222L15.0445 14.5826C15.1519 14.4251 15.2236 14.3026 15.2594 14.2151L14.9907 14.1364C14.8295 14.1014 14.713 14.0664 14.6414 14.0314C14.2293 13.8564 13.8576 13.6158 13.5262 13.3095C13.1948 13.0033 12.9395 12.6577 12.7603 12.2727C12.4558 11.6428 12.3752 10.9866 12.5185 10.3041C12.5901 9.90167 12.7424 9.52544 12.9753 9.17547C13.2082 8.82549 13.4859 8.52801 13.8083 8.28303C14.4712 7.81057 15.2057 7.57433 16.0119 7.57433C16.4956 7.55683 16.9658 7.63995 17.4226 7.82369C17.8795 8.00743 18.2781 8.27428 18.6185 8.62426C18.923 8.90424 19.1604 9.24109 19.3306 9.63481C19.5008 10.0285 19.5948 10.4266 19.6127 10.8291C19.6127 11.1266 19.559 11.4941 19.4515 11.9315L21.3325 12.4302L21.5475 12.4565C21.7983 11.704 21.861 10.9516 21.7356 10.1991C21.664 9.62169 21.4893 9.0661 21.2116 8.53239C20.9339 7.99868 20.5801 7.53059 20.1502 7.12812C19.3978 6.39317 18.4751 5.9032 17.3823 5.65822C17.2748 5.62322 17.1136 5.58823 16.8986 5.55323L16.5224 5.50073H15.5282ZM16.0119 8.7555C15.7073 8.7555 15.4028 8.81674 15.0982 8.93924C14.7937 9.06173 14.5205 9.24109 14.2786 9.47732C14.0368 9.71355 13.8621 9.98916 13.7546 10.3041C13.6113 10.6541 13.5754 11.0391 13.6471 11.4591C13.7009 11.774 13.8263 12.0715 14.0233 12.3515C14.2204 12.6315 14.4712 12.8502 14.7757 13.0077C15.2057 13.2702 15.7073 13.3839 16.2806 13.3489C16.3343 13.4189 16.3791 13.4889 16.4149 13.5589L19.4246 18.5723C19.4784 18.6773 19.5321 18.756 19.5859 18.8085C20.0696 18.3536 20.5936 18.043 21.1579 17.8767C21.7222 17.7105 22.3044 17.6799 22.9046 17.7849C23.5047 17.8898 24.0287 18.1173 24.4766 18.4673C25.0499 18.9048 25.4395 19.4429 25.6455 20.0816C25.8515 20.7203 25.856 21.3633 25.659 22.0108C25.5156 22.5008 25.2604 22.9382 24.8931 23.3232C24.5259 23.7082 24.0914 23.9969 23.5898 24.1894C23.0345 24.4169 22.4388 24.4912 21.8028 24.4125C21.1668 24.3338 20.598 24.1194 20.0964 23.7694C20.0248 23.7169 19.9083 23.6294 19.7471 23.5069L19.6127 23.3494C19.5411 23.4019 19.4425 23.4894 19.3171 23.6119L18.0541 24.8193C18.4662 25.2218 18.932 25.5587 19.4515 25.8299C19.971 26.1011 20.5174 26.2892 21.0907 26.3942L21.6819 26.4992H22.7299L23.4823 26.368C24.6289 26.1405 25.6142 25.6155 26.4383 24.7931C26.8324 24.4081 27.1593 23.9663 27.4191 23.4676C27.6789 22.9689 27.8535 22.4483 27.9431 21.9058C28.0327 21.2758 28.0148 20.6503 27.8894 20.0291C27.764 19.4079 27.54 18.8435 27.2176 18.3361C26.8951 17.8286 26.501 17.3824 26.0352 16.9974C25.5694 16.6124 25.0588 16.3062 24.5035 16.0787C23.8944 15.8337 23.2629 15.6938 22.609 15.6588C21.9551 15.6238 21.3146 15.685 20.6876 15.8425L20.2308 15.9737L18.0541 12.3777C18.287 12.0453 18.4304 11.7215 18.4841 11.4066C18.5737 10.8466 18.4572 10.3216 18.1348 9.83167C17.8481 9.3942 17.454 9.08797 16.9524 8.91299C16.6478 8.80799 16.3343 8.7555 16.0119 8.7555ZM8.43391 15.685C7.39485 15.9125 6.49911 16.3762 5.74669 17.0762C4.9047 17.8461 4.3583 18.7648 4.10749 19.8322L4 20.4622V21.4333L4.05374 21.7221C4.08957 21.9496 4.1254 22.1245 4.16123 22.247C4.28664 22.7895 4.50609 23.3057 4.8196 23.7957C5.13311 24.2856 5.5138 24.7144 5.96167 25.0818C6.85741 25.7993 7.88751 26.228 9.05197 26.368C9.73273 26.438 10.4135 26.3986 11.0943 26.2499C11.775 26.1011 12.402 25.8518 12.9753 25.5018C13.9248 24.9068 14.6235 24.1106 15.0713 23.1132C15.1967 22.8157 15.3221 22.422 15.4475 21.9321C15.555 21.9146 15.7163 21.9146 15.9312 21.9321L19.2903 21.9845C19.5411 21.9845 19.7202 21.9933 19.8277 22.0108C20.0248 22.3608 20.2487 22.632 20.4995 22.8245C20.7503 23.017 21.0325 23.157 21.346 23.2445C21.6595 23.332 21.9775 23.3669 22.2999 23.3494C22.8016 23.297 23.2494 23.122 23.6436 22.8245C24.1273 22.457 24.4139 21.9845 24.5035 21.4071C24.5393 21.1096 24.5259 20.8209 24.4632 20.5409C24.4005 20.2609 24.2795 19.9984 24.1004 19.7535C23.8137 19.3685 23.4465 19.0885 22.9986 18.9135C22.6941 18.791 22.3761 18.7342 22.0447 18.7429C21.7132 18.7517 21.3952 18.8173 21.0907 18.9398C20.5891 19.1498 20.2039 19.4735 19.9352 19.9109L19.8546 20.0684C19.6038 20.0684 19.2276 20.0597 18.7259 20.0422L15.6894 20.0159C15.4207 19.9984 15.0355 19.9897 14.5339 19.9897L13.1903 19.9634L13.2709 20.4097C13.4142 21.1621 13.2978 21.8708 12.9216 22.5358C12.6708 23.0082 12.3125 23.4019 11.8467 23.7169C11.3809 24.0319 10.8703 24.2244 10.315 24.2944C9.68794 24.3994 9.06092 24.3338 8.43391 24.0975C7.80689 23.8613 7.29632 23.4894 6.90219 22.982C6.40058 22.3695 6.15873 21.6783 6.17665 20.9084C6.19456 20.2609 6.40058 19.6572 6.79471 19.0973C7.0276 18.7648 7.31423 18.4848 7.65461 18.2573C7.995 18.0298 8.36225 17.8636 8.75637 17.7586L8.99822 17.6799L8.43391 15.685Z" fill="white"/>
</svg>
