<svg width="520" height="224" viewBox="0 0 520 224" fill="none" xmlns="http://www.w3.org/2000/svg">
<g clip-path="url(#clip0_45_3165)">
<rect x="54" y="28" width="2" height="156" fill="#8E9099"/>
<rect x="496" y="28" width="1.00002" height="440" transform="rotate(90 496 28)" fill="#484A50"/>
<rect x="496" y="59" width="1.00002" height="440" transform="rotate(90 496 59)" fill="#484A50"/>
<rect x="496" y="90" width="1.00002" height="440" transform="rotate(90 496 90)" fill="#484A50"/>
<rect x="496" y="121" width="1.00002" height="440" transform="rotate(90 496 121)" fill="#484A50"/>
<rect x="496" y="152" width="1.00002" height="440" transform="rotate(90 496 152)" fill="#484A50"/>
<rect x="496" y="183" width="1.00002" height="440" transform="rotate(90 496 183)" fill="#484A50"/>
<g clip-path="url(#clip1_45_3165)">
<rect width="1" height="156" transform="matrix(1 0 0 -1 89 184)" fill="#484A50"/>
<rect width="1" height="156" transform="matrix(1 0 0 -1 122 184)" fill="#484A50"/>
<rect width="1" height="156" transform="matrix(1 0 0 -1 155 184)" fill="#484A50"/>
<rect width="1" height="156" transform="matrix(1 0 0 -1 188 184)" fill="#484A50"/>
<rect width="1" height="156" transform="matrix(1 0 0 -1 221 184)" fill="#484A50"/>
<rect width="1" height="156" transform="matrix(1 0 0 -1 254 184)" fill="#484A50"/>
<rect width="1" height="156" transform="matrix(1 0 0 -1 287 184)" fill="#484A50"/>
<rect width="1" height="156" transform="matrix(1 0 0 -1 320 184)" fill="#484A50"/>
<rect width="1" height="156" transform="matrix(1 0 0 -1 353 184)" fill="#484A50"/>
<rect width="1" height="156" transform="matrix(1 0 0 -1 386 184)" fill="#484A50"/>
<rect width="1" height="156" transform="matrix(1 0 0 -1 419 184)" fill="#484A50"/>
<rect width="1" height="156" transform="matrix(1 0 0 -1 452 184)" fill="#484A50"/>
<rect width="1" height="156" transform="matrix(1 0 0 -1 485 184)" fill="#484A50"/>
</g>
<path d="M27.2905 29V20.95L24.7705 22.168L24.2245 21.16L27.5985 19.522H28.5645V29H27.2905ZM35.337 20.432C34.8983 20.432 34.483 20.502 34.091 20.642C33.7083 20.782 33.3677 20.9733 33.069 21.216L32.453 20.362C32.845 20.054 33.2743 19.8067 33.741 19.62C34.217 19.4333 34.763 19.34 35.379 19.34C36.3123 19.34 37.045 19.5593 37.577 19.998C38.1183 20.4367 38.389 21.062 38.389 21.874C38.389 22.2007 38.3423 22.504 38.249 22.784C38.165 23.0547 38.039 23.3113 37.871 23.554C37.7123 23.7873 37.521 24.0113 37.297 24.226C37.073 24.4313 36.8303 24.6367 36.569 24.842L34.917 26.102C34.5623 26.3727 34.2683 26.6527 34.035 26.942C33.811 27.222 33.6663 27.5253 33.601 27.852H38.291V29H32.313V28.286C32.313 27.67 32.481 27.124 32.817 26.648C33.153 26.1627 33.587 25.7147 34.119 25.304L35.771 24.044C36.275 23.652 36.6203 23.288 36.807 22.952C36.9937 22.616 37.087 22.2753 37.087 21.93C37.087 21.4353 36.9377 21.062 36.639 20.81C36.3403 20.558 35.9063 20.432 35.337 20.432ZM41.4375 19.522H46.4495V20.6H42.4875L42.2215 23.54C42.4455 23.3813 42.7115 23.2553 43.0195 23.162C43.3368 23.0687 43.6822 23.022 44.0555 23.022C44.9888 23.022 45.7122 23.2833 46.2255 23.806C46.7482 24.3193 47.0095 25.0427 47.0095 25.976C47.0095 26.452 46.9302 26.8907 46.7715 27.292C46.6128 27.684 46.3842 28.02 46.0855 28.3C45.7962 28.58 45.4322 28.7993 44.9935 28.958C44.5642 29.1073 44.0788 29.182 43.5375 29.182C42.3802 29.182 41.3862 28.832 40.5555 28.132L41.1715 27.222C41.5168 27.502 41.8855 27.7167 42.2775 27.866C42.6788 28.0153 43.0895 28.09 43.5095 28.09C44.1908 28.09 44.7275 27.9127 45.1195 27.558C45.5208 27.194 45.7215 26.676 45.7215 26.004C45.7215 25.3693 45.5488 24.8933 45.2035 24.576C44.8582 24.2587 44.3682 24.1 43.7335 24.1C43.3415 24.1 42.9915 24.1607 42.6835 24.282C42.3755 24.4033 42.0955 24.5713 41.8435 24.786L41.0175 24.394L41.4375 19.522Z" fill="#E3E3E5"/>
<path d="M27.2905 61V52.95L24.7705 54.168L24.2245 53.16L27.5985 51.522H28.5645V61H27.2905ZM39.145 56.254C39.145 57.878 38.823 59.1053 38.179 59.936C37.5443 60.7667 36.6623 61.182 35.533 61.182C34.4037 61.182 33.517 60.7667 32.873 59.936C32.2383 59.1053 31.921 57.878 31.921 56.254C31.921 54.6487 32.243 53.4307 32.887 52.6C33.531 51.76 34.413 51.34 35.533 51.34C36.653 51.34 37.535 51.76 38.179 52.6C38.823 53.4307 39.145 54.6487 39.145 56.254ZM37.801 56.254C37.801 55.0033 37.605 54.0653 37.213 53.44C36.821 52.8053 36.261 52.488 35.533 52.488C34.805 52.488 34.245 52.8053 33.853 53.44C33.461 54.0653 33.265 55.0033 33.265 56.254C33.265 57.514 33.461 58.4613 33.853 59.096C34.245 59.7213 34.805 60.034 35.533 60.034C36.261 60.034 36.821 59.7213 37.213 59.096C37.605 58.4613 37.801 57.514 37.801 56.254ZM47.4575 56.254C47.4575 57.878 47.1355 59.1053 46.4915 59.936C45.8568 60.7667 44.9748 61.182 43.8455 61.182C42.7162 61.182 41.8295 60.7667 41.1855 59.936C40.5508 59.1053 40.2335 57.878 40.2335 56.254C40.2335 54.6487 40.5555 53.4307 41.1995 52.6C41.8435 51.76 42.7255 51.34 43.8455 51.34C44.9655 51.34 45.8475 51.76 46.4915 52.6C47.1355 53.4307 47.4575 54.6487 47.4575 56.254ZM46.1135 56.254C46.1135 55.0033 45.9175 54.0653 45.5255 53.44C45.1335 52.8053 44.5735 52.488 43.8455 52.488C43.1175 52.488 42.5575 52.8053 42.1655 53.44C41.7735 54.0653 41.5775 55.0033 41.5775 56.254C41.5775 57.514 41.7735 58.4613 42.1655 59.096C42.5575 59.7213 43.1175 60.034 43.8455 60.034C44.5735 60.034 45.1335 59.7213 45.5255 59.096C45.9175 58.4613 46.1135 57.514 46.1135 56.254Z" fill="#E3E3E5"/>
<path d="M33.545 93L37.297 84.67H32.089V83.522H38.683V84.474L34.931 93H33.545ZM41.4375 83.522H46.4495V84.6H42.4875L42.2215 87.54C42.4455 87.3813 42.7115 87.2553 43.0195 87.162C43.3368 87.0687 43.6822 87.022 44.0555 87.022C44.9888 87.022 45.7122 87.2833 46.2255 87.806C46.7482 88.3193 47.0095 89.0427 47.0095 89.976C47.0095 90.452 46.9302 90.8907 46.7715 91.292C46.6128 91.684 46.3842 92.02 46.0855 92.3C45.7962 92.58 45.4322 92.7993 44.9935 92.958C44.5642 93.1073 44.0788 93.182 43.5375 93.182C42.3802 93.182 41.3862 92.832 40.5555 92.132L41.1715 91.222C41.5168 91.502 41.8855 91.7167 42.2775 91.866C42.6788 92.0153 43.0895 92.09 43.5095 92.09C44.1908 92.09 44.7275 91.9127 45.1195 91.558C45.5208 91.194 45.7215 90.676 45.7215 90.004C45.7215 89.3693 45.5488 88.8933 45.2035 88.576C44.8582 88.2587 44.3682 88.1 43.7335 88.1C43.3415 88.1 42.9915 88.1607 42.6835 88.282C42.3755 88.4033 42.0955 88.5713 41.8435 88.786L41.0175 88.394L41.4375 83.522Z" fill="#E3E3E5"/>
<path d="M33.125 115.522H38.137V116.6H34.175L33.909 119.54C34.133 119.381 34.399 119.255 34.707 119.162C35.0243 119.069 35.3697 119.022 35.743 119.022C36.6763 119.022 37.3997 119.283 37.913 119.806C38.4357 120.319 38.697 121.043 38.697 121.976C38.697 122.452 38.6177 122.891 38.459 123.292C38.3003 123.684 38.0717 124.02 37.773 124.3C37.4837 124.58 37.1197 124.799 36.681 124.958C36.2517 125.107 35.7663 125.182 35.225 125.182C34.0677 125.182 33.0737 124.832 32.243 124.132L32.859 123.222C33.2043 123.502 33.573 123.717 33.965 123.866C34.3663 124.015 34.777 124.09 35.197 124.09C35.8783 124.09 36.415 123.913 36.807 123.558C37.2083 123.194 37.409 122.676 37.409 122.004C37.409 121.369 37.2363 120.893 36.891 120.576C36.5457 120.259 36.0557 120.1 35.421 120.1C35.029 120.1 34.679 120.161 34.371 120.282C34.063 120.403 33.783 120.571 33.531 120.786L32.705 120.394L33.125 115.522ZM47.4575 120.254C47.4575 121.878 47.1355 123.105 46.4915 123.936C45.8568 124.767 44.9748 125.182 43.8455 125.182C42.7162 125.182 41.8295 124.767 41.1855 123.936C40.5508 123.105 40.2335 121.878 40.2335 120.254C40.2335 118.649 40.5555 117.431 41.1995 116.6C41.8435 115.76 42.7255 115.34 43.8455 115.34C44.9655 115.34 45.8475 115.76 46.4915 116.6C47.1355 117.431 47.4575 118.649 47.4575 120.254ZM46.1135 120.254C46.1135 119.003 45.9175 118.065 45.5255 117.44C45.1335 116.805 44.5735 116.488 43.8455 116.488C43.1175 116.488 42.5575 116.805 42.1655 117.44C41.7735 118.065 41.5775 119.003 41.5775 120.254C41.5775 121.514 41.7735 122.461 42.1655 123.096C42.5575 123.721 43.1175 124.034 43.8455 124.034C44.5735 124.034 45.1335 123.721 45.5255 123.096C45.9175 122.461 46.1135 121.514 46.1135 120.254Z" fill="#E3E3E5"/>
<path d="M35.337 148.432C34.8983 148.432 34.483 148.502 34.091 148.642C33.7083 148.782 33.3677 148.973 33.069 149.216L32.453 148.362C32.845 148.054 33.2743 147.807 33.741 147.62C34.217 147.433 34.763 147.34 35.379 147.34C36.3123 147.34 37.045 147.559 37.577 147.998C38.1183 148.437 38.389 149.062 38.389 149.874C38.389 150.201 38.3423 150.504 38.249 150.784C38.165 151.055 38.039 151.311 37.871 151.554C37.7123 151.787 37.521 152.011 37.297 152.226C37.073 152.431 36.8303 152.637 36.569 152.842L34.917 154.102C34.5623 154.373 34.2683 154.653 34.035 154.942C33.811 155.222 33.6663 155.525 33.601 155.852H38.291V157H32.313V156.286C32.313 155.67 32.481 155.124 32.817 154.648C33.153 154.163 33.587 153.715 34.119 153.304L35.771 152.044C36.275 151.652 36.6203 151.288 36.807 150.952C36.9937 150.616 37.087 150.275 37.087 149.93C37.087 149.435 36.9377 149.062 36.639 148.81C36.3403 148.558 35.9063 148.432 35.337 148.432ZM41.4375 147.522H46.4495V148.6H42.4875L42.2215 151.54C42.4455 151.381 42.7115 151.255 43.0195 151.162C43.3368 151.069 43.6822 151.022 44.0555 151.022C44.9888 151.022 45.7122 151.283 46.2255 151.806C46.7482 152.319 47.0095 153.043 47.0095 153.976C47.0095 154.452 46.9302 154.891 46.7715 155.292C46.6128 155.684 46.3842 156.02 46.0855 156.3C45.7962 156.58 45.4322 156.799 44.9935 156.958C44.5642 157.107 44.0788 157.182 43.5375 157.182C42.3802 157.182 41.3862 156.832 40.5555 156.132L41.1715 155.222C41.5168 155.502 41.8855 155.717 42.2775 155.866C42.6788 156.015 43.0895 156.09 43.5095 156.09C44.1908 156.09 44.7275 155.913 45.1195 155.558C45.5208 155.194 45.7215 154.676 45.7215 154.004C45.7215 153.369 45.5488 152.893 45.2035 152.576C44.8582 152.259 44.3682 152.1 43.7335 152.1C43.3415 152.1 42.9915 152.161 42.6835 152.282C42.3755 152.403 42.0955 152.571 41.8435 152.786L41.0175 152.394L41.4375 147.522Z" fill="#E3E3E5"/>
<path d="M47.4575 184.254C47.4575 185.878 47.1355 187.105 46.4915 187.936C45.8568 188.767 44.9748 189.182 43.8455 189.182C42.7162 189.182 41.8295 188.767 41.1855 187.936C40.5508 187.105 40.2335 185.878 40.2335 184.254C40.2335 182.649 40.5555 181.431 41.1995 180.6C41.8435 179.76 42.7255 179.34 43.8455 179.34C44.9655 179.34 45.8475 179.76 46.4915 180.6C47.1355 181.431 47.4575 182.649 47.4575 184.254ZM46.1135 184.254C46.1135 183.003 45.9175 182.065 45.5255 181.44C45.1335 180.805 44.5735 180.488 43.8455 180.488C43.1175 180.488 42.5575 180.805 42.1655 181.44C41.7735 182.065 41.5775 183.003 41.5775 184.254C41.5775 185.514 41.7735 186.461 42.1655 187.096C42.5575 187.721 43.1175 188.034 43.8455 188.034C44.5735 188.034 45.1335 187.721 45.5255 187.096C45.9175 186.461 46.1135 185.514 46.1135 184.254Z" fill="#E3E3E5"/>
<path d="M61.77 200.254C61.77 201.878 61.448 203.105 60.804 203.936C60.1693 204.767 59.2873 205.182 58.158 205.182C57.0287 205.182 56.142 204.767 55.498 203.936C54.8633 203.105 54.546 201.878 54.546 200.254C54.546 198.649 54.868 197.431 55.512 196.6C56.156 195.76 57.038 195.34 58.158 195.34C59.278 195.34 60.16 195.76 60.804 196.6C61.448 197.431 61.77 198.649 61.77 200.254ZM60.426 200.254C60.426 199.003 60.23 198.065 59.838 197.44C59.446 196.805 58.886 196.488 58.158 196.488C57.43 196.488 56.87 196.805 56.478 197.44C56.086 198.065 55.89 199.003 55.89 200.254C55.89 201.514 56.086 202.461 56.478 203.096C56.87 203.721 57.43 204.034 58.158 204.034C58.886 204.034 59.446 203.721 59.838 203.096C60.23 202.461 60.426 201.514 60.426 200.254ZM64.4825 205L68.2345 196.67H63.0265V195.522H69.6205V196.474L65.8685 205H64.4825ZM72.053 207.296H70.765L74.629 194.78H75.917L72.053 207.296ZM83.8227 200.254C83.8227 201.878 83.5007 203.105 82.8567 203.936C82.2221 204.767 81.3401 205.182 80.2107 205.182C79.0814 205.182 78.1947 204.767 77.5507 203.936C76.9161 203.105 76.5987 201.878 76.5987 200.254C76.5987 198.649 76.9207 197.431 77.5647 196.6C78.2087 195.76 79.0907 195.34 80.2107 195.34C81.3307 195.34 82.2127 195.76 82.8567 196.6C83.5007 197.431 83.8227 198.649 83.8227 200.254ZM82.4787 200.254C82.4787 199.003 82.2827 198.065 81.8907 197.44C81.4987 196.805 80.9387 196.488 80.2107 196.488C79.4827 196.488 78.9227 196.805 78.5307 197.44C78.1387 198.065 77.9427 199.003 77.9427 200.254C77.9427 201.514 78.1387 202.461 78.5307 203.096C78.9227 203.721 79.4827 204.034 80.2107 204.034C80.9387 204.034 81.4987 203.721 81.8907 203.096C82.2827 202.461 82.4787 201.514 82.4787 200.254ZM86.1152 195.522H91.1272V196.6H87.1652L86.8992 199.54C87.1232 199.381 87.3892 199.255 87.6972 199.162C88.0146 199.069 88.3599 199.022 88.7332 199.022C89.6666 199.022 90.3899 199.283 90.9032 199.806C91.4259 200.319 91.6872 201.043 91.6872 201.976C91.6872 202.452 91.6079 202.891 91.4492 203.292C91.2906 203.684 91.0619 204.02 90.7632 204.3C90.4739 204.58 90.1099 204.799 89.6712 204.958C89.2419 205.107 88.7566 205.182 88.2152 205.182C87.0579 205.182 86.0639 204.832 85.2332 204.132L85.8492 203.222C86.1946 203.502 86.5632 203.717 86.9552 203.866C87.3566 204.015 87.7672 204.09 88.1872 204.09C88.8686 204.09 89.4052 203.913 89.7972 203.558C90.1986 203.194 90.3992 202.676 90.3992 202.004C90.3992 201.369 90.2266 200.893 89.8812 200.576C89.5359 200.259 89.0459 200.1 88.4112 200.1C88.0192 200.1 87.6692 200.161 87.3612 200.282C87.0532 200.403 86.7732 200.571 86.5212 200.786L85.6952 200.394L86.1152 195.522Z" fill="#E3E3E5"/>
<path d="M161.77 200.254C161.77 201.878 161.448 203.105 160.804 203.936C160.169 204.767 159.287 205.182 158.158 205.182C157.029 205.182 156.142 204.767 155.498 203.936C154.863 203.105 154.546 201.878 154.546 200.254C154.546 198.649 154.868 197.431 155.512 196.6C156.156 195.76 157.038 195.34 158.158 195.34C159.278 195.34 160.16 195.76 160.804 196.6C161.448 197.431 161.77 198.649 161.77 200.254ZM160.426 200.254C160.426 199.003 160.23 198.065 159.838 197.44C159.446 196.805 158.886 196.488 158.158 196.488C157.43 196.488 156.87 196.805 156.478 197.44C156.086 198.065 155.89 199.003 155.89 200.254C155.89 201.514 156.086 202.461 156.478 203.096C156.87 203.721 157.43 204.034 158.158 204.034C158.886 204.034 159.446 203.721 159.838 203.096C160.23 202.461 160.426 201.514 160.426 200.254ZM164.483 205L168.235 196.67H163.027V195.522H169.621V196.474L165.869 205H164.483ZM172.053 207.296H170.765L174.629 194.78H175.917L172.053 207.296ZM180.281 205V196.95L177.761 198.168L177.215 197.16L180.589 195.522H181.555V205H180.281ZM191.141 197.832C191.141 198.355 191.025 198.812 190.791 199.204C190.558 199.587 190.245 199.885 189.853 200.1C190.983 200.427 191.547 201.178 191.547 202.354C191.547 202.802 191.463 203.203 191.295 203.558C191.137 203.903 190.908 204.197 190.609 204.44C190.311 204.683 189.947 204.869 189.517 205C189.097 205.121 188.631 205.182 188.117 205.182C187.52 205.182 186.96 205.093 186.437 204.916C185.924 204.739 185.471 204.477 185.079 204.132L185.709 203.222C186.092 203.521 186.47 203.74 186.843 203.88C187.226 204.02 187.651 204.09 188.117 204.09C188.789 204.09 189.312 203.945 189.685 203.656C190.068 203.357 190.259 202.909 190.259 202.312C190.259 201.752 190.082 201.351 189.727 201.108C189.382 200.856 188.869 200.73 188.187 200.73H186.773V199.652H188.145C188.435 199.652 188.687 199.61 188.901 199.526C189.116 199.433 189.293 199.311 189.433 199.162C189.573 199.003 189.676 198.826 189.741 198.63C189.816 198.425 189.853 198.205 189.853 197.972C189.853 197.431 189.676 197.039 189.321 196.796C188.976 196.553 188.547 196.432 188.033 196.432C187.651 196.432 187.263 196.493 186.871 196.614C186.489 196.735 186.148 196.903 185.849 197.118L185.289 196.264C185.672 195.965 186.111 195.737 186.605 195.578C187.1 195.419 187.613 195.34 188.145 195.34C189.079 195.34 189.811 195.569 190.343 196.026C190.875 196.474 191.141 197.076 191.141 197.832Z" fill="#E3E3E5"/>
<path d="M261.77 200.254C261.77 201.878 261.448 203.105 260.804 203.936C260.169 204.767 259.287 205.182 258.158 205.182C257.029 205.182 256.142 204.767 255.498 203.936C254.863 203.105 254.546 201.878 254.546 200.254C254.546 198.649 254.868 197.431 255.512 196.6C256.156 195.76 257.038 195.34 258.158 195.34C259.278 195.34 260.16 195.76 260.804 196.6C261.448 197.431 261.77 198.649 261.77 200.254ZM260.426 200.254C260.426 199.003 260.23 198.065 259.838 197.44C259.446 196.805 258.886 196.488 258.158 196.488C257.43 196.488 256.87 196.805 256.478 197.44C256.086 198.065 255.89 199.003 255.89 200.254C255.89 201.514 256.086 202.461 256.478 203.096C256.87 203.721 257.43 204.034 258.158 204.034C258.886 204.034 259.446 203.721 259.838 203.096C260.23 202.461 260.426 201.514 260.426 200.254ZM264.483 205L268.235 196.67H263.027V195.522H269.621V196.474L265.869 205H264.483ZM272.053 207.296H270.765L274.629 194.78H275.917L272.053 207.296ZM280.015 196.432C279.576 196.432 279.161 196.502 278.769 196.642C278.386 196.782 278.045 196.973 277.747 197.216L277.131 196.362C277.523 196.054 277.952 195.807 278.419 195.62C278.895 195.433 279.441 195.34 280.057 195.34C280.99 195.34 281.723 195.559 282.255 195.998C282.796 196.437 283.067 197.062 283.067 197.874C283.067 198.201 283.02 198.504 282.927 198.784C282.843 199.055 282.717 199.311 282.549 199.554C282.39 199.787 282.199 200.011 281.975 200.226C281.751 200.431 281.508 200.637 281.247 200.842L279.595 202.102C279.24 202.373 278.946 202.653 278.713 202.942C278.489 203.222 278.344 203.525 278.279 203.852H282.969V205H276.991V204.286C276.991 203.67 277.159 203.124 277.495 202.648C277.831 202.163 278.265 201.715 278.797 201.304L280.449 200.044C280.953 199.652 281.298 199.288 281.485 198.952C281.671 198.616 281.765 198.275 281.765 197.93C281.765 197.435 281.615 197.062 281.317 196.81C281.018 196.558 280.584 196.432 280.015 196.432ZM292.135 200.254C292.135 201.878 291.813 203.105 291.169 203.936C290.535 204.767 289.653 205.182 288.523 205.182C287.394 205.182 286.507 204.767 285.863 203.936C285.229 203.105 284.911 201.878 284.911 200.254C284.911 198.649 285.233 197.431 285.877 196.6C286.521 195.76 287.403 195.34 288.523 195.34C289.643 195.34 290.525 195.76 291.169 196.6C291.813 197.431 292.135 198.649 292.135 200.254ZM290.791 200.254C290.791 199.003 290.595 198.065 290.203 197.44C289.811 196.805 289.251 196.488 288.523 196.488C287.795 196.488 287.235 196.805 286.843 197.44C286.451 198.065 286.255 199.003 286.255 200.254C286.255 201.514 286.451 202.461 286.843 203.096C287.235 203.721 287.795 204.034 288.523 204.034C289.251 204.034 289.811 203.721 290.203 203.096C290.595 202.461 290.791 201.514 290.791 200.254Z" fill="#E3E3E5"/>
<path d="M361.77 200.254C361.77 201.878 361.448 203.105 360.804 203.936C360.169 204.767 359.287 205.182 358.158 205.182C357.029 205.182 356.142 204.767 355.498 203.936C354.863 203.105 354.546 201.878 354.546 200.254C354.546 198.649 354.868 197.431 355.512 196.6C356.156 195.76 357.038 195.34 358.158 195.34C359.278 195.34 360.16 195.76 360.804 196.6C361.448 197.431 361.77 198.649 361.77 200.254ZM360.426 200.254C360.426 199.003 360.23 198.065 359.838 197.44C359.446 196.805 358.886 196.488 358.158 196.488C357.43 196.488 356.87 196.805 356.478 197.44C356.086 198.065 355.89 199.003 355.89 200.254C355.89 201.514 356.086 202.461 356.478 203.096C356.87 203.721 357.43 204.034 358.158 204.034C358.886 204.034 359.446 203.721 359.838 203.096C360.23 202.461 360.426 201.514 360.426 200.254ZM364.483 205L368.235 196.67H363.027V195.522H369.621V196.474L365.869 205H364.483ZM372.053 207.296H370.765L374.629 194.78H375.917L372.053 207.296ZM380.015 196.432C379.576 196.432 379.161 196.502 378.769 196.642C378.386 196.782 378.045 196.973 377.747 197.216L377.131 196.362C377.523 196.054 377.952 195.807 378.419 195.62C378.895 195.433 379.441 195.34 380.057 195.34C380.99 195.34 381.723 195.559 382.255 195.998C382.796 196.437 383.067 197.062 383.067 197.874C383.067 198.201 383.02 198.504 382.927 198.784C382.843 199.055 382.717 199.311 382.549 199.554C382.39 199.787 382.199 200.011 381.975 200.226C381.751 200.431 381.508 200.637 381.247 200.842L379.595 202.102C379.24 202.373 378.946 202.653 378.713 202.942C378.489 203.222 378.344 203.525 378.279 203.852H382.969V205H376.991V204.286C376.991 203.67 377.159 203.124 377.495 202.648C377.831 202.163 378.265 201.715 378.797 201.304L380.449 200.044C380.953 199.652 381.298 199.288 381.485 198.952C381.671 198.616 381.765 198.275 381.765 197.93C381.765 197.435 381.615 197.062 381.317 196.81C381.018 196.558 380.584 196.432 380.015 196.432ZM386.535 205L390.287 196.67H385.079V195.522H391.673V196.474L387.921 205H386.535Z" fill="#E3E3E5"/>
<path d="M461.77 200.254C461.77 201.878 461.448 203.105 460.804 203.936C460.169 204.767 459.287 205.182 458.158 205.182C457.029 205.182 456.142 204.767 455.498 203.936C454.863 203.105 454.546 201.878 454.546 200.254C454.546 198.649 454.868 197.431 455.512 196.6C456.156 195.76 457.038 195.34 458.158 195.34C459.278 195.34 460.16 195.76 460.804 196.6C461.448 197.431 461.77 198.649 461.77 200.254ZM460.426 200.254C460.426 199.003 460.23 198.065 459.838 197.44C459.446 196.805 458.886 196.488 458.158 196.488C457.43 196.488 456.87 196.805 456.478 197.44C456.086 198.065 455.89 199.003 455.89 200.254C455.89 201.514 456.086 202.461 456.478 203.096C456.87 203.721 457.43 204.034 458.158 204.034C458.886 204.034 459.446 203.721 459.838 203.096C460.23 202.461 460.426 201.514 460.426 200.254ZM466.471 205.182C465.976 205.182 465.519 205.117 465.099 204.986C464.688 204.855 464.333 204.673 464.035 204.44C463.736 204.197 463.503 203.903 463.335 203.558C463.176 203.213 463.097 202.83 463.097 202.41C463.097 201.813 463.255 201.309 463.573 200.898C463.89 200.487 464.301 200.217 464.805 200.086C464.394 199.909 464.067 199.638 463.825 199.274C463.591 198.901 463.475 198.462 463.475 197.958C463.475 197.594 463.54 197.253 463.671 196.936C463.811 196.619 464.007 196.343 464.259 196.11C464.52 195.867 464.837 195.681 465.211 195.55C465.584 195.41 466.004 195.34 466.471 195.34C466.937 195.34 467.357 195.41 467.731 195.55C468.104 195.681 468.417 195.867 468.669 196.11C468.93 196.343 469.126 196.619 469.257 196.936C469.397 197.253 469.467 197.594 469.467 197.958C469.467 198.462 469.345 198.901 469.103 199.274C468.86 199.638 468.538 199.909 468.137 200.086C468.641 200.217 469.051 200.487 469.369 200.898C469.686 201.309 469.845 201.813 469.845 202.41C469.845 202.83 469.761 203.213 469.593 203.558C469.434 203.903 469.205 204.197 468.907 204.44C468.608 204.673 468.249 204.855 467.829 204.986C467.418 205.117 466.965 205.182 466.471 205.182ZM466.471 204.104C467.124 204.104 467.633 203.955 467.997 203.656C468.37 203.348 468.557 202.914 468.557 202.354C468.557 201.775 468.37 201.341 467.997 201.052C467.623 200.763 467.115 200.618 466.471 200.618C465.827 200.618 465.318 200.763 464.945 201.052C464.571 201.341 464.385 201.775 464.385 202.354C464.385 202.914 464.567 203.348 464.931 203.656C465.304 203.955 465.817 204.104 466.471 204.104ZM466.471 199.624C466.984 199.624 467.395 199.479 467.703 199.19C468.02 198.901 468.179 198.499 468.179 197.986C468.179 197.482 468.025 197.095 467.717 196.824C467.418 196.553 467.003 196.418 466.471 196.418C465.939 196.418 465.519 196.553 465.211 196.824C464.912 197.095 464.763 197.482 464.763 197.986C464.763 198.499 464.917 198.901 465.225 199.19C465.542 199.479 465.957 199.624 466.471 199.624ZM472.053 207.296H470.765L474.629 194.78H475.917L472.053 207.296ZM483.823 200.254C483.823 201.878 483.501 203.105 482.857 203.936C482.222 204.767 481.34 205.182 480.211 205.182C479.081 205.182 478.195 204.767 477.551 203.936C476.916 203.105 476.599 201.878 476.599 200.254C476.599 198.649 476.921 197.431 477.565 196.6C478.209 195.76 479.091 195.34 480.211 195.34C481.331 195.34 482.213 195.76 482.857 196.6C483.501 197.431 483.823 198.649 483.823 200.254ZM482.479 200.254C482.479 199.003 482.283 198.065 481.891 197.44C481.499 196.805 480.939 196.488 480.211 196.488C479.483 196.488 478.923 196.805 478.531 197.44C478.139 198.065 477.943 199.003 477.943 200.254C477.943 201.514 478.139 202.461 478.531 203.096C478.923 203.721 479.483 204.034 480.211 204.034C480.939 204.034 481.499 203.721 481.891 203.096C482.283 202.461 482.479 201.514 482.479 200.254ZM489.559 205V202.886H484.995V201.892L489.531 195.522H490.777V201.808H492.135V202.886H490.777V205H489.559ZM489.559 201.808V197.342L486.409 201.808H489.559Z" fill="#E3E3E5"/>
<g clip-path="url(#clip2_45_3165)">
<path d="M56 59.8954L72.0914 54L84.7975 77.3757L98.7429 64.9418H113.595L126.903 71.4075L140.112 80.8572L153.051 75.3863L166.629 86.8255L180.709 88.8149L194.286 109.704L207.863 97.3868L221.943 109.704L239.04 100.254L249.6 80.8572L260.663 91.799L277.257 97.3868L288.823 88.8149L302.937 91.799L314.971 104.233H333.499L345.143 93.7885L360.692 97.3868L373.806 91.799L387.886 104.233H400.96L409.548 97.3868L427.109 113.185L443.2 97.3868L458.789 100.254L470.857 125.122L484.686 130L496 117.164" stroke="#00C7FD" stroke-width="3" stroke-linecap="round" stroke-linejoin="round"/>
</g>
<path d="M6.5 110.099L7.292 110.099L7.292 111.584L12 111.584L12 112.563L7.292 112.563L7.292 113.498L6.5 113.498L6.5 112.563L5.917 112.563C5.323 112.563 4.86833 112.398 4.553 112.068C4.23767 111.731 4.08 111.265 4.08 110.671C4.08 110.539 4.08733 110.422 4.102 110.319C4.10933 110.217 4.12033 110.125 4.135 110.044L4.894 110.044L4.894 110.209C4.894 110.429 4.90867 110.627 4.938 110.803C4.96 110.972 5.00767 111.115 5.081 111.232C5.15433 111.342 5.26433 111.43 5.411 111.496C5.55033 111.555 5.73367 111.584 5.961 111.584L6.5 111.584L6.5 110.099ZM12.143 106.458C12.143 106.854 12.066 107.203 11.912 107.503C11.7507 107.804 11.5307 108.039 11.252 108.207L14.31 108.207L14.31 109.186L6.5 109.186L6.5 108.68C6.5 108.38 6.632 108.229 6.896 108.229L7.347 108.229C7.04633 108.075 6.808 107.826 6.632 107.481C6.44867 107.137 6.357 106.737 6.357 106.282C6.357 105.908 6.423 105.578 6.555 105.292C6.687 104.999 6.87767 104.753 7.127 104.555C7.369 104.35 7.66233 104.196 8.007 104.093C8.34433 103.983 8.722 103.928 9.14 103.928C9.57267 103.928 9.97233 103.983 10.339 104.093C10.7057 104.203 11.0247 104.365 11.296 104.577C11.56 104.79 11.769 105.054 11.923 105.369C12.0697 105.685 12.143 106.048 12.143 106.458ZM9.305 108.229C9.92833 108.229 10.416 108.086 10.768 107.8C11.12 107.507 11.296 107.1 11.296 106.579C11.296 106.051 11.1127 105.648 10.746 105.369C10.3793 105.091 9.86233 104.951 9.195 104.951C8.54967 104.951 8.05833 105.083 7.721 105.347C7.37633 105.604 7.204 105.985 7.204 106.491C7.204 107.041 7.39467 107.47 7.776 107.778C8.15 108.079 8.65967 108.229 9.305 108.229ZM7.171 100.788C7.171 101.088 7.22967 101.341 7.347 101.547C7.46433 101.752 7.65867 101.855 7.93 101.855C8.05467 101.855 8.183 101.814 8.315 101.734C8.43967 101.646 8.546 101.455 8.634 101.162L8.942 100.15C9.08867 99.6658 9.283 99.3138 9.525 99.0938C9.75967 98.8738 10.064 98.7638 10.438 98.7638C10.944 98.7638 11.3547 98.9471 11.67 99.3138C11.9853 99.6731 12.143 100.194 12.143 100.876C12.143 101.316 12.0807 101.715 11.956 102.075C11.824 102.427 11.6407 102.738 11.406 103.01L10.724 102.559C10.9073 102.324 11.054 102.067 11.164 101.789C11.2667 101.503 11.318 101.195 11.318 100.865C11.318 100.527 11.2483 100.256 11.109 100.051C10.9697 99.8381 10.7533 99.7318 10.46 99.7318C10.2767 99.7318 10.13 99.7868 10.02 99.8968C9.91 99.9994 9.81467 100.179 9.734 100.436L9.426 101.481C9.294 101.935 9.107 102.273 8.865 102.493C8.623 102.713 8.315 102.823 7.941 102.823C7.677 102.823 7.446 102.771 7.248 102.669C7.05 102.566 6.885 102.423 6.753 102.24C6.621 102.056 6.522 101.844 6.456 101.602C6.39 101.352 6.357 101.085 6.357 100.799C6.357 100.454 6.40467 100.113 6.5 99.7758C6.588 99.4311 6.72733 99.1378 6.918 98.8958L7.6 99.2588C7.47533 99.4641 7.37267 99.6951 7.292 99.9518C7.21133 100.201 7.171 100.48 7.171 100.788Z" fill="#E3E3E5"/>
</g>
<defs>
<clipPath id="clip0_45_3165">
<rect width="520" height="224" fill="white"/>
</clipPath>
<clipPath id="clip1_45_3165">
<rect width="430" height="156" fill="white" transform="translate(56 28)"/>
</clipPath>
<clipPath id="clip2_45_3165">
<rect width="440" height="156" fill="white" transform="translate(56 28)"/>
</clipPath>
</defs>
</svg>
