<svg width="14" height="14" viewBox="0 0 14 14" fill="none" xmlns="http://www.w3.org/2000/svg">
<path fill-rule="evenodd" clip-rule="evenodd" d="M1 6V7H2V6H1ZM0.25 5C0.111929 5 0 5.11193 0 5.25V7.75C0 7.88807 0.111929 8 0.25 8H2.75C2.88807 8 3 7.88807 3 7.75V5.25C3 5.11193 2.88807 5 2.75 5H0.25Z" fill="#B7B9BE"/>
<path fill-rule="evenodd" clip-rule="evenodd" d="M6 3V4H7V3H6ZM5.25 2C5.11193 2 5 2.11193 5 2.25V4.75C5 4.88807 5.11193 5 5.25 5H7.75C7.88807 5 8 4.88807 8 4.75V2.25C8 2.11193 7.88807 2 7.75 2H5.25Z" fill="#B7B9BE"/>
<path fill-rule="evenodd" clip-rule="evenodd" d="M1 1V2.03125H2.03125V1H1ZM0.25 0C0.111929 0 0 0.111929 0 0.25V2.78125C0 2.91932 0.111929 3.03125 0.25 3.03125H2.78125C2.91932 3.03125 3.03125 2.91932 3.03125 2.78125V0.25C3.03125 0.111929 2.91932 0 2.78125 0H0.25Z" fill="#B7B9BE"/>
<path fill-rule="evenodd" clip-rule="evenodd" d="M11.0208 8H8V11H5V13H13V5H11.0052L11.0208 8ZM7.25 7C7.11193 7 7 7.11193 7 7.25V10H4.25C4.11193 10 4 10.1119 4 10.25V13.75C4 13.8881 4.11193 14 4.25 14H13.75C13.8881 14 14 13.8881 14 13.75V4.25C14 4.11193 13.8881 4 13.75 4H10.2513C10.1127 4 10.0006 4.11272 10.0013 4.2513L10.0156 7H7.25Z" fill="#B7B9BE"/>
</svg>
