<svg width="14" height="15" viewBox="0 0 14 15" fill="none" xmlns="http://www.w3.org/2000/svg">
<path fill-rule="evenodd" clip-rule="evenodd" d="M1 6.42065V7.42065H2V6.42065H1ZM0.25 5.42065C0.111929 5.42065 0 5.53258 0 5.67065V8.17065C0 8.30873 0.111929 8.42065 0.25 8.42065H2.75C2.88807 8.42065 3 8.30873 3 8.17065V5.67065C3 5.53258 2.88807 5.42065 2.75 5.42065H0.25Z" fill="white"/>
<path fill-rule="evenodd" clip-rule="evenodd" d="M6 3.42065V4.42065H7V3.42065H6ZM5.25 2.42065C5.11193 2.42065 5 2.53258 5 2.67065V5.17065C5 5.30873 5.11193 5.42065 5.25 5.42065H7.75C7.88807 5.42065 8 5.30873 8 5.17065V2.67065C8 2.53258 7.88807 2.42065 7.75 2.42065H5.25Z" fill="white"/>
<path fill-rule="evenodd" clip-rule="evenodd" d="M1 1.42065V2.4519H2.03125V1.42065H1ZM0.25 0.420654C0.111929 0.420654 0 0.532583 0 0.670654V3.2019C0 3.33998 0.111929 3.4519 0.25 3.4519H2.78125C2.91932 3.4519 3.03125 3.33998 3.03125 3.2019V0.670654C3.03125 0.532583 2.91932 0.420654 2.78125 0.420654H0.25Z" fill="white"/>
<path fill-rule="evenodd" clip-rule="evenodd" d="M11.0208 8.42065H8V11.4207H5V13.4207H13V5.42065H11.0052L11.0208 8.42065ZM7.25 7.42065C7.11193 7.42065 7 7.53258 7 7.67065V10.4207H4.25C4.11193 10.4207 4 10.5326 4 10.6707V14.1707C4 14.3087 4.11193 14.4207 4.25 14.4207H13.75C13.8881 14.4207 14 14.3087 14 14.1707V4.67065C14 4.53258 13.8881 4.42065 13.75 4.42065H10.2513C10.1127 4.42065 10.0006 4.53338 10.0013 4.67196L10.0156 7.42065H7.25Z" fill="white"/>
</svg>
