<svg width="13" height="12" viewBox="0 0 13 12" fill="none" xmlns="http://www.w3.org/2000/svg">
<path d="M1.13624 0.075079C1.23387 -0.0225525 1.39216 -0.0225525 1.4898 0.075079L7.2337 5.81898C7.30436 5.88963 7.32388 5.99207 7.29226 6.08028C7.28059 6.11756 7.25999 6.15265 7.23046 6.18219L1.48782 11.9248C1.39018 12.0225 1.23189 12.0225 1.13426 11.9248L0.073712 10.8643C-0.0239195 10.7666 -0.0239195 10.6084 0.0737115 10.5107L4.58538 5.99906L0.0755944 1.48928C-0.0220366 1.39165 -0.0220366 1.23336 0.0755949 1.13573L1.13624 0.075079Z" fill="#E3E3E5"/>
<path d="M6.13624 0.075079C6.23387 -0.0225525 6.39216 -0.0225525 6.48979 0.075079L12.2337 5.81898C12.3044 5.88963 12.3239 5.99207 12.2923 6.08028C12.2806 6.11756 12.26 6.15265 12.2305 6.18219L6.48781 11.9248C6.39018 12.0225 6.23189 12.0225 6.13426 11.9248L5.07371 10.8643C4.97608 10.7666 4.97608 10.6084 5.07371 10.5107L9.58537 5.99906L5.07559 1.48928C4.97796 1.39165 4.97796 1.23336 5.07559 1.13573L6.13624 0.075079Z" fill="#E3E3E5"/>
</svg>
