<svg width="32" height="32" viewBox="0 0 32 32" fill="none" xmlns="http://www.w3.org/2000/svg">
<path fill-rule="evenodd" clip-rule="evenodd" d="M2 6V26C2 26.5281 2.20464 27.0083 2.53895 27.3658C2.90394 27.7561 3.42348 28 4 28H28C28.5765 28 29.0961 27.7561 29.4611 27.3658C29.7954 27.0083 30 26.5281 30 26V10C30 9.47195 29.7954 8.9917 29.4611 8.63422C29.0961 8.24394 28.5765 8 28 8H16.8929L14.8737 4.50279C14.6871 4.17965 14.3482 3.99902 14 4H4C3.43241 4 2.92004 4.23644 2.55602 4.6162C2.21162 4.97547 2 5.46302 2 6ZM4 26H28V10H16.3203C15.969 10.0041 15.6258 9.82342 15.4376 9.49752L13.4216 6.00566L4 6V17.9999C6.21392 17.9996 11.5284 17.999 14 17.999L14 14.501C14 14.0555 14.5386 13.8325 14.8536 14.1474L19.8339 18.6455C19.9316 18.7431 20 18.8711 20 18.999C20 19.127 19.9316 19.2549 19.8339 19.3526L14.8536 23.8516C14.5386 24.1665 14 23.9435 14 23.498L14 20H4V26Z" fill="white"/>
</svg>
