<svg width="32" height="32" viewBox="0 0 32 32" fill="none" xmlns="http://www.w3.org/2000/svg">
<path fill-rule="evenodd" clip-rule="evenodd" d="M12.0127 4.67833C12.1766 2.6196 13.8991 1 16 1C18.1009 1 19.8234 2.6196 19.9873 4.67833C24.6547 6.32207 28 10.7704 28 16C28 16.8242 27.9169 17.6289 27.7587 18.4064C29.0861 19.0572 30 20.4219 30 22C30 24.2091 28.2091 26 26 26C25.1243 26 24.3143 25.7186 23.6555 25.2413C21.578 26.9642 18.9099 28 16 28C13.0901 28 10.422 26.9642 8.34448 25.2413C7.68572 25.7186 6.87572 26 6 26C3.79086 26 2 24.2091 2 22C2 20.4219 2.9139 19.0572 4.24133 18.4064C4.08308 17.6289 4 16.8242 4 16C4 10.7704 7.34532 6.32207 12.0127 4.67833ZM19.6313 6.67973C18.9965 8.04973 17.6092 9 16 9C14.3908 9 13.0035 8.04973 12.3687 6.67973C8.64117 8.13309 6 11.7581 6 16C6 16.6867 6.06921 17.3572 6.20105 18.005C8.31678 18.1097 10 19.8583 10 22C10 22.6085 9.86413 23.1853 9.62107 23.7016C11.3523 25.1371 13.5754 26 16 26C18.4246 26 20.6477 25.1371 22.3789 23.7016C22.1359 23.1853 22 22.6085 22 22C22 19.8583 23.6832 18.1097 25.799 18.005C25.9308 17.3572 26 16.6867 26 16C26 11.7581 23.3588 8.13309 19.6313 6.67973Z" fill="white"/>
</svg>
